<?xml version="1.0" encoding="utf-8"?>
<!-- Generator: Adobe Illustrator 30.2.1, SVG Export Plug-In . SVG Version: 9.03 Build 0)  -->
<svg version="1.0" id="Layer_1" xmlns="http://www.w3.org/2000/svg" xmlns:xlink="http://www.w3.org/1999/xlink" x="0px" y="0px"
	 viewBox="0 0 121 170" style="enable-background:new 0 0 121 170;" xml:space="preserve">
<style type="text/css">
	.st0{fill:#FBFBFA;}
	.st1{fill:#D1D1D1;}
	.st2{fill:#FBE305;}
	.st3{fill:#F7B030;}
	.st4{fill:#F8A71E;}
	.st5{fill:#F77E20;}
	.st6{fill:#EB5930;}
	.st7{fill:#E72629;}
	.st8{fill:#0A0000;}
	.st9{fill:#010101;}
</style>
<g>
	<path class="st0" d="M17.3,164.32c-0.49-0.13-0.88-0.48-1.15-0.99c-0.24-0.49-0.25-1.13-0.25-11.86c0-10.71,0.01-11.37,0.25-11.74
		c0.59-0.9,2.04-1.22,3.12-0.71c0.98,0.48,0.94-0.18,0.92,12.66c-0.03,10.98-0.04,11.57-0.28,11.9
		C19.41,164.27,18.31,164.57,17.3,164.32L17.3,164.32z"/>
	<path class="st0" d="M79.36,114.88c-0.06-0.04-0.1-2.16-0.1-4.69v-4.59h1.37c1.6,0,2.2,0.22,2.58,0.99c0.22,0.41,0.25,0.9,0.25,3.6
		c0,3.33-0.04,3.54-0.73,4.19c-0.2,0.18-0.66,0.38-1.08,0.46c-0.85,0.15-2.16,0.18-2.3,0.04L79.36,114.88z"/>
	<path class="st0" d="M113.3,131.53c-0.28-0.13-0.62-0.48-0.8-0.8l-0.32-0.56v-11.76c0-13.14-0.06-12.37,0.98-13.07
		c0.42-0.28,0.63-0.32,1.44-0.28c0.87,0.04,0.98,0.08,1.47,0.57l0.52,0.52l0.04,12.09c0.03,11.85,0.03,12.09-0.25,12.53
		C115.79,131.74,114.39,132.07,113.3,131.53L113.3,131.53z"/>
</g>
<g>
	<path class="st1" d="M65.96,167.15c0-0.92,0.04-1.19,0.2-1.19c0.22,0,0.36,0.43,0.36,1.19c0,0.76-0.14,1.19-0.36,1.19
		C66.01,168.34,65.96,168.07,65.96,167.15z"/>
	<path class="st1" d="M32.91,161.47c0-5.03,0.03-6.02,0.2-6.02c0.1,0,0.22,0.14,0.28,0.32c0.11,0.41,0.11,10.99,0,11.41
		c-0.06,0.17-0.18,0.31-0.28,0.31C32.94,167.49,32.91,166.5,32.91,161.47z"/>
	<path class="st1" d="M43.97,154.33c0-10.76,0.03-12.74,0.2-12.74c0.1,0,0.22,0.14,0.28,0.32c0.11,0.41,0.11,24.44,0,24.86
		c-0.06,0.17-0.18,0.31-0.28,0.31C44,167.08,43.97,165.09,43.97,154.33L43.97,154.33z"/>
	<path class="st1" d="M19.75,152.58c0-5.5,0.03-10.17,0.08-10.36c0.04-0.2,0.17-0.35,0.28-0.35c0.17,0,0.2,1.61,0.2,10.36
		c0,10.21,0,10.36-0.28,10.36C19.76,162.59,19.76,162.42,19.75,152.58z"/>
	<path class="st1" d="M25.07,157.27c0-2.09,0.03-2.52,0.2-2.52c0.28,0,0.34,0.48,0.35,2.52c0.01,1.97-0.06,2.52-0.35,2.52
		C25.1,159.79,25.07,159.36,25.07,157.27z"/>
	<path class="st1" d="M65.96,157.13c0-0.98,0.04-1.26,0.2-1.26c0.24,0,0.36,0.43,0.36,1.26s-0.13,1.26-0.36,1.26
		C66.01,158.39,65.96,158.11,65.96,157.13z"/>
	<path class="st1" d="M39.44,157.94c-0.11-0.43-0.08-1.5,0.06-1.93l0.11-0.35l0.01,0.35c0.01,0.2,0.08,0.45,0.15,0.56
		c0.08,0.14,0.14-3.4,0.14-10.11v-10.34h0.56c0.46,0,0.56,0.04,0.56,0.28c0,0.18-0.1,0.28-0.28,0.28c-0.28,0-0.28,0.1-0.28,10.78
		v10.78h-0.48C39.63,158.24,39.5,158.17,39.44,157.94L39.44,157.94z"/>
	<path class="st1" d="M84.17,149.22c0-5.34,0.03-6.37,0.2-6.37c0.1,0,0.22,0.14,0.28,0.32c0.11,0.41,0.11,11.69,0,12.11
		c-0.06,0.17-0.18,0.31-0.28,0.31C84.2,155.59,84.17,154.55,84.17,149.22L84.17,149.22z"/>
	<path class="st1" d="M65.96,153.14c0-1.64,0.04-2.03,0.2-2.03c0.28,0,0.36,0.45,0.36,2.03s-0.08,2.03-0.36,2.03
		C66.01,155.17,65.96,154.78,65.96,153.14z"/>
	<path class="st1" d="M97.47,150.76v-0.77l-2.62-0.03l-2.63-0.04l-0.04-1.01c-0.03-0.84,0-1.02,0.17-1.02c0.24,0,0.43,0.78,0.34,1.3
		l-0.06,0.31h2.66h2.67l0.04,0.56c0.07,0.78-0.08,1.47-0.32,1.47C97.53,151.53,97.47,151.33,97.47,150.76z"/>
	<path class="st1" d="M25.07,143.97c0-2.53,0.03-3.08,0.2-3.08c0.31,0,0.36,0.48,0.36,3.08s-0.06,3.08-0.36,3.08
		C25.1,147.05,25.07,146.5,25.07,143.97z"/>
	<path class="st1" d="M65.93,140.3c-0.03-2.25-0.04-4.12-0.04-4.13c0,0,0.13-0.04,0.28-0.07c0.28-0.04,0.28,0.04,0.32,3.67
		c0.04,3.94,0,4.62-0.32,4.62C66,144.39,65.96,143.7,65.93,140.3L65.93,140.3z"/>
	<path class="st1" d="M84.17,139.56c0-2.11,0.04-2.59,0.2-2.59c0.29,0,0.36,0.46,0.36,2.59c0,2.13-0.07,2.59-0.36,2.59
		C84.22,142.15,84.17,141.67,84.17,139.56z"/>
	<path class="st1" d="M31.51,133.45c0-0.62,0.06-0.83,0.2-0.83c0.21,0,0.36,0.42,0.36,1.06c0,0.32-0.07,0.46-0.28,0.52
		C31.54,134.27,31.51,134.2,31.51,133.45L31.51,133.45z"/>
	<path class="st1" d="M71.56,132.44c0-0.95-0.04-1.95-0.08-2.2c-0.08-0.41-0.07-0.43,0.24-0.39l0.34,0.04v2.1
		c0,1.89-0.03,2.1-0.24,2.14C71.6,134.17,71.57,134.02,71.56,132.44L71.56,132.44z"/>
	<path class="st1" d="M13.3,117.78c0-8.49,0.03-10.08,0.2-10.08c0.1,0,0.22,0.14,0.28,0.32c0.11,0.41,0.11,19.12,0,19.54
		c-0.06,0.17-0.18,0.31-0.28,0.31C13.33,127.87,13.3,126.27,13.3,117.78L13.3,117.78z"/>
	<path class="st1" d="M78.43,123.31v-2.87h0.49c0.34,0,0.49,0.07,0.49,0.21c0,0.11-0.1,0.21-0.21,0.21c-0.18,0-0.21,0.35-0.21,2.35
		c0,2.51-0.06,2.97-0.36,2.97C78.48,126.18,78.43,125.66,78.43,123.31z"/>
	<path class="st1" d="M39.63,110.15c0-3.07,0.03-3.71,0.2-3.71c0.31,0,0.36,0.48,0.36,3.71c0,3.24-0.06,3.71-0.36,3.71
		C39.66,113.86,39.63,113.22,39.63,110.15z"/>
	<path class="st1" d="M103.49,109.88c0-1.69,0.03-2.04,0.21-2.04c0.28,0,0.36,0.66,0.32,2.45c-0.04,1.33-0.07,1.54-0.28,1.58
		C103.5,111.91,103.49,111.74,103.49,109.88z"/>
	<path class="st1" d="M71.7,106.34c-0.18-0.04-0.21-0.41-0.21-2.28c0-1.97,0.03-2.23,0.24-2.28c0.13-0.04,0.27-0.03,0.31,0.01
		c0.13,0.11,0.1,4.48-0.01,4.55C71.96,106.37,71.82,106.37,71.7,106.34L71.7,106.34z"/>
	<path class="st1" d="M59.55,102.91c0.03-0.84,0.08-1.02,0.29-1.06s0.24,0.08,0.24,1.01c0,0.98-0.03,1.06-0.28,1.06
		C59.53,103.92,59.51,103.85,59.55,102.91z"/>
</g>
<g>
	<path class="st2" d="M64.67,74.41c-0.95-1.02-2.39-3.46-3.15-5.32c-0.97-2.41-1.19-3.56-1.26-6.76c-0.06-2.55-0.03-3.03,0.24-4.34
		c1.46-7.06,7.83-12.77,15.52-13.86c1.78-0.27,6.37-0.11,7.81,0.25c3.66,0.94,6.33,2.42,9.06,5.06c0.84,0.81,1.08,1.13,1.08,1.44
		c0,0.78-2.74,6.13-4.31,8.37c-1.95,2.79-5.15,6.27-7.65,8.3c-5.21,4.23-11.79,7.23-15.92,7.24c-0.97,0-1.08-0.03-1.41-0.38H64.67z"
		/>
</g>
<g>
	<path class="st3" d="M37.46,86.74c-2-1.01-4.29-2.48-6.02-3.88c-2.31-1.86-5.08-4.92-6.57-7.24c-3.03-4.71-4.44-10.35-4.08-16.18
		l0.1-1.61h0.66h0.66l0.67,1.37c0.77,1.62,2.83,4.94,3.94,6.39c0.56,0.74,0.77,1.13,0.77,1.46c0,0.42-0.03,0.45-0.53,0.45
		c-0.46,0-0.59-0.07-0.88-0.49C26,66.74,25.47,65.97,25,65.3c-0.46-0.67-0.92-1.32-1.02-1.41c-0.08-0.1-0.17-0.28-0.17-0.39
		s-0.07-0.2-0.14-0.2c-0.08,0-0.25-0.24-0.39-0.53c-0.13-0.28-0.28-0.55-0.32-0.59c-0.04-0.04-0.17-0.25-0.29-0.49
		c-0.73-1.41-0.7-1.44-0.6,0.7c0.06,1.08,0.18,2.46,0.29,3.08c0.11,0.62,0.27,1.48,0.35,1.93c0.07,0.45,0.25,1.12,0.39,1.47
		c0.67,1.69,1.55,3.66,1.88,4.26c0.56,0.98,2.39,3.66,2.93,4.27c1.46,1.68,3.61,3.74,5.08,4.86c2.34,1.81,3.08,2.28,5.28,3.39
		l1.93,0.97v0.53c0,0.49-0.03,0.52-0.45,0.52c-0.28-0.01-1.2-0.38-2.28-0.92L37.46,86.74z"/>
	<path class="st3" d="M23.67,38.79v-1.26h0.56c0.5,0,0.56,0.04,0.56,0.34c0,0.18,0.1,0.36,0.21,0.42c0.31,0.11,0.25,0.87-0.1,1.34
		c-0.22,0.32-0.42,0.42-0.77,0.42h-0.46C23.67,40.05,23.67,38.79,23.67,38.79z"/>
</g>
<g>
	<path class="st4" d="M48.46,90.11c-1.12-0.14-3.66-0.64-4.83-0.98c-1.82-0.52-4.03-1.32-4.2-1.53c-0.2-0.24-1.54-0.91-1.83-0.91
		c-0.13,0-0.31-0.08-0.39-0.2c-0.08-0.1-0.5-0.36-0.92-0.59c-1.5-0.77-5.28-3.53-6.22-4.52c-0.24-0.24-0.5-0.43-0.6-0.43
		s-0.18-0.07-0.18-0.17c0-0.08-0.39-0.57-0.88-1.08c-1.44-1.53-1.76-1.93-2.84-3.54c-1.33-1.97-1.64-2.52-2.41-4.31
		c-1.08-2.52-1.62-4.61-1.79-6.85c-0.04-0.53,0.03-0.32,0.21,0.69c0.98,5.22,3.22,9.64,6.93,13.58c0.62,0.66,1.13,1.16,1.13,1.12
		s0.25,0.2,0.56,0.53c1.12,1.25,4.66,3.84,6.57,4.83c0.46,0.24,0.88,0.43,0.92,0.45c0.04,0.01,0.53,0.25,1.09,0.53
		c0.55,0.29,1.01,0.48,1.01,0.42c0-0.07-0.87-0.55-1.93-1.08c-2.2-1.11-2.94-1.58-5.28-3.39c-1.47-1.12-3.63-3.18-5.08-4.86
		c-0.53-0.62-2.37-3.29-2.93-4.27c-0.32-0.6-1.2-2.56-1.88-4.26c-0.14-0.35-0.32-1.02-0.39-1.47c-0.08-0.45-0.24-1.34-0.36-2
		c-0.25-1.4-0.43-4.99-0.29-5.91l0.1-0.64l0.32,0.32c0.31,0.31,0.5,0.63,0.98,1.57c0.08,0.18,0.21,0.32,0.27,0.32
		c0.07,0,0.07,0.07,0.03,0.14c-0.04,0.08-0.03,0.14,0.04,0.14c0.08,0,0.18,0.15,0.22,0.35c0.06,0.2,0.15,0.35,0.24,0.35
		c0.08,0,0.1,0.07,0.06,0.14c-0.04,0.08,0.01,0.18,0.13,0.22c0.13,0.04,0.22,0.17,0.22,0.27c0,0.11,0.08,0.28,0.17,0.38
		c0.1,0.1,0.56,0.74,1.02,1.41c1.29,1.88,1.47,2.13,1.65,2.18c0.13,0.04,0.13,0.01,0.01-0.14c-1.61-2.07-3.5-5.01-4.43-6.88
		c-0.29-0.6-0.53-1.12-0.53-1.16s0.2,0.13,0.42,0.38c0.24,0.24,0.42,0.52,0.42,0.62c0,0.11,0.08,0.2,0.2,0.2
		c0.11,0,0.24,0.21,0.28,0.49c0.06,0.27,0.15,0.49,0.22,0.49s0.2,0.22,0.28,0.49s0.22,0.49,0.29,0.49c0.07,0,0.13,0.1,0.13,0.21
		s0.07,0.21,0.14,0.21c0.08,0,0.14,0.08,0.14,0.2c0,0.11,0.08,0.29,0.18,0.39s0.42,0.57,0.73,1.05c0.31,0.49,0.64,0.88,0.74,0.88
		c0.08,0,0.17,0.11,0.17,0.27c0,0.14,0.1,0.34,0.22,0.45c0.11,0.1,0.31,0.35,0.42,0.57c0.11,0.21,0.28,0.39,0.39,0.39
		c0.1,0,0.49,0.39,0.88,0.88c0.95,1.16,3.77,3.89,5.13,4.97c4.79,3.8,10.81,6.32,16.74,7.03c2.67,0.31,6.61,0.14,9.13-0.41
		c0.35-0.08,0.95-0.14,1.34-0.15h0.73l0.81,0.99c1.11,1.36,2.41,2.52,3.95,3.53c1.19,0.78,1.29,0.88,1.29,1.32
		c0,0.42-0.1,0.52-1.27,1.3c-2.51,1.69-5.14,2.84-8.25,3.6c-1.37,0.34-1.74,0.36-5.25,0.39c-2.07,0.03-4.01,0.01-4.27-0.01
		L48.46,90.11z"/>
	<path class="st4" d="M21.19,63.09c0-0.46,0.03-0.63,0.06-0.38c0.03,0.25,0.03,0.63,0,0.84S21.19,63.55,21.19,63.09z"/>
	<path class="st4" d="M91.66,44.79c-0.53-0.39-1.61-1.01-2.38-1.39c-2.67-1.27-4.69-1.79-7.66-1.9l-1.9-0.08l-0.36-0.67
		c-1.25-2.28-3.56-5.2-5.49-6.93c-2.46-2.2-4.65-3.66-7.69-5.11c-7.46-3.57-15.11-4.16-23.18-1.79c-4.1,1.2-8.44,3.49-11.9,6.26
		c-1.61,1.29-4.16,3.81-5.17,5.11c-0.57,0.71-0.83,0.94-1.09,0.94c-0.31,0-0.34-0.03-0.18-0.21c0.15-0.2,0.1-0.27-0.17-0.22
		c-0.07,0-0.11-0.18-0.11-0.41c0-0.7-0.28-0.48-0.31,0.25c-0.01,0.5-0.03,0.55-0.07,0.21c-0.03-0.25-0.13-0.46-0.21-0.46
		c-0.32,0,0.28-4.1,1.04-7.14c1.01-4.1,2.84-8.33,4.99-11.55C34.5,12.68,42.13,8.02,51.49,6.47c2.32-0.39,9.54-0.56,11.78-0.29
		c5.1,0.63,10.28,2.51,14.21,5.14c8.54,5.7,14.27,15.34,15.74,26.47c0.27,1.99,0.52,6.67,0.41,7.31c-0.13,0.69-0.71,0.62-1.95-0.28
		L91.66,44.79z"/>
</g>
<g>
	<path class="st5" d="M74.71,80.32c-2.24-0.35-4.37-1.11-6.12-2.17c-0.78-0.46-0.88-0.59-0.92-1.01c-0.06-0.67,0.2-0.84,2.07-1.36
		c3.63-1.02,7.91-3.14,11.34-5.59c4.83-3.45,9.07-8.29,12.06-13.78c1.11-2.02,1.15-2.07,1.88-2.07h0.57l0.31,0.88
		c1.43,4.09,1.46,9.58,0.07,13.26c-2.24,5.94-7.66,10.43-14.19,11.76C80.16,80.58,76.56,80.6,74.71,80.32L74.71,80.32z"/>
</g>
<g>
	<path class="st6" d="M63.3,91.42c0-0.64,0.22-0.83,1.89-1.51c3.78-1.58,6.88-3.61,9.38-6.15c1.27-1.3,1.19-1.27,3.64-0.92
		c1.82,0.27,3.53,0.27,5.38-0.01c1.75-0.25,4.24-0.83,4.87-1.11c0.24-0.11,0.81-0.21,1.29-0.21h0.85v0.43c0,0.25-0.08,0.52-0.2,0.6
		c-5.77,4.62-11.95,7.49-18.99,8.86c-1.57,0.29-2.42,0.36-5,0.42l-3.12,0.07v-0.48L63.3,91.42z"/>
	<path class="st6" d="M100.55,68.75c0-0.25,0.13-0.91,0.28-1.44c1.62-5.84,1.02-13.04-1.5-18.07c-0.5-1.01-1.93-3.25-2.16-3.39
		c-0.08-0.04-0.1-1.27-0.04-3.18c0.07-2.1,0.04-3.66-0.07-4.79c-0.74-7.32-3.73-14.7-8.54-21.22c-2.6-3.53-6.95-7.63-10.14-9.59
		c-0.63-0.41-0.67-0.45-0.63-0.98l0.04-0.56l0.73-0.04c0.87-0.06,1.9,0.35,4.9,1.89c6.99,3.59,12.58,8.67,17,15.45
		c5.73,8.77,7.97,19.91,6.34,31.44c-0.63,4.51-2.28,9.55-4.37,13.37c-0.78,1.43-0.81,1.47-1.33,1.51c-0.5,0.04-0.52,0.03-0.52-0.41
		L100.55,68.75z"/>
	<path class="st6" d="M18.14,63.34c-1.44-3.11-2.72-7.95-3.14-12.02c-0.41-3.81-0.29-8.98,0.27-12.83c1.08-7.28,4.19-14.19,9.02-20
		c0.56-0.66,1.89-2.04,2.95-3.05l1.93-1.86h0.67c0.67,0,0.69,0.01,0.69,0.41c0,0.31-0.35,0.88-1.32,2.17
		c-5.53,7.35-8.12,13.81-8.56,21.3c-0.11,1.79,0.08,4.36,0.5,6.65l0.29,1.61l-0.7,2.1c-0.81,2.44-1.36,4.93-1.55,7.21
		c-0.25,2.72-0.21,3.88,0.36,8.65l0.08,0.73h-0.5c-0.5,0-0.52-0.03-1.01-1.08L18.14,63.34z"/>
</g>
<g>
	<path class="st7" d="M55.67,71.77c-7.48-1.36-14.41-3.95-19.23-7.2c-3.54-2.39-6.05-4.94-8.51-8.64c-1.22-1.85-3.05-5.31-3.71-7.06
		c-0.7-1.82-1.25-3.56-1.25-3.94c0-0.53,0.43-1.37,1.68-3.28c1.32-1.99,2.39-3.28,4.36-5.18c1.86-1.81,3.38-2.97,5.49-4.23
		c1.76-1.04,2.44-1.36,4.86-2.27c3.8-1.46,5.87-1.81,11.13-1.92c3.26-0.07,4.2-0.06,5.6,0.14c6.53,0.92,12.11,3.33,16.88,7.3
		c1.57,1.32,1.71,1.48,1.65,2.11c-0.04,0.49-0.08,0.55-0.53,0.66c-2.91,0.73-5.34,1.69-7.46,2.94c-2.74,1.62-5.85,4.5-7.34,6.76
		c-2.07,3.15-3.14,6.2-3.56,10.07c-0.36,3.49,0.6,7.94,2.53,11.67c0.46,0.9,0.84,1.79,0.84,2.02c0,0.39-0.01,0.39-0.8,0.38
		c-0.45,0-1.62-0.15-2.63-0.34L55.67,71.77z"/>
</g>
<g>
	<path class="st8" d="M100.41,68.44c0-0.34,0.06-0.8,0.14-1.02c0.07-0.22,0.2-0.81,0.28-1.32c0.07-0.5,0.22-1.51,0.34-2.24
		c0.13-0.73,0.22-2.17,0.24-3.19l0.01-1.86l0.36,0.04l0.38,0.04l-0.03,2.03c-0.04,2.74-0.45,5.53-1.12,7.63
		c-0.14,0.45,0.31,0.01,0.52-0.5c0.25-0.6,0.29-0.43,0.08,0.29c-0.17,0.59-0.22,0.63-0.7,0.67l-0.5,0.04v-0.62L100.41,68.44z"/>
	<path class="st8" d="M17.87,63.41c-0.64-1.43-1.75-4.66-2.1-6.19c-0.7-2.97-1.04-5.34-1.2-8.56c-0.15-2.9-0.08-3.85,0.28-3.85
		c0.21,0,0.25,0.25,0.34,2.41c0.15,3.94,0.46,6.16,1.29,9.5c0.53,2.18,1.36,4.64,2.09,6.2c0.46,0.99,0.76,1.43,0.57,0.83
		c-0.2-0.62-0.5-4.33-0.5-6.15v-2h0.35h0.35v1.79c0,0.98,0.1,2.73,0.21,3.88c0.11,1.16,0.21,2.31,0.21,2.56v0.45h-0.74h-0.74
		l-0.39-0.87L17.87,63.41z"/>
</g>
<g>
	<path class="st9" d="M87.25,153.49v-16.81h6.02h6.02v2.59v2.59l-3.32,0.03l-3.33,0.04l-0.04,3.82l-0.03,3.81h2.66h2.66v2.24v2.24
		h-2.66h-2.66v5.74v5.74l3.4,0.03l3.39,0.04l0.04,2.35l0.03,2.34h-6.09h-6.09v-16.81V153.49z"/>
	<path class="st9" d="M77.33,169.22c-0.32-1.54-2.63-14.73-3.26-18.63c-0.32-2.06-0.5-2.84-0.64-2.84c-0.15,0-0.18,1.9-0.18,10.92
		v10.92h-2.09h-2.1l-0.08-0.73c-0.04-0.41-0.07-7.8-0.04-16.43l0.04-15.69h3.64h3.63l0.45,2.52c0.24,1.39,1.05,6.08,1.81,10.43
		c0.76,4.36,1.41,7.95,1.46,8.01c0.04,0.06,0.07-4.66,0.04-10.46l-0.04-10.57h2.31h2.32v16.6v16.6h-3.56h-3.56l-0.14-0.66
		L77.33,169.22z"/>
	<path class="st9" d="M16.74,168.18c-2.23-0.36-3.94-1.61-4.83-3.5c-0.7-1.48-0.71-1.85-0.67-13.85l0.04-11.13l0.32-0.8
		c1.01-2.51,3.19-4.01,6.18-4.26c1.29-0.11,3.04,0.2,4.19,0.74c0.95,0.45,2.25,1.65,2.73,2.52c0.81,1.5,0.8,1.33,0.8,13.63
		c0,12.31,0.03,11.88-0.8,13.51c-0.55,1.05-1.78,2.2-2.88,2.63c-1.53,0.62-3.36,0.8-5.07,0.5L16.74,168.18z M19.05,163.59
		c0.2-0.13,0.46-0.46,0.59-0.73c0.24-0.43,0.25-1.26,0.25-11.26c0-10.2-0.01-10.81-0.27-11.36c-0.27-0.6-0.94-1.04-1.58-1.04
		c-0.43,0-1.16,0.46-1.47,0.94c-0.24,0.36-0.25,1.01-0.25,11.32c0,10.32,0.01,10.95,0.25,11.44
		C17.09,163.94,18.15,164.23,19.05,163.59L19.05,163.59z"/>
	<path class="st9" d="M60.78,152.23v-16.11h2.8h2.8v16.11v16.11h-2.8h-2.8V152.23z"/>
	<path class="st9" d="M28.57,152.44v-15.05h3.63c2,0,3.67,0.06,3.71,0.13c0.13,0.21,2.32,11.15,3.53,17.66
		c0.2,1.04,0.41,2.09,0.48,2.31c0.06,0.24,0.11-4.33,0.13-10.39l0.01-10.81l0.6-0.08c0.32-0.04,1.29-0.07,2.13-0.04l1.54,0.04
		l0.04,15.66l0.03,15.64h-3.5c-1.92,0-3.5-0.04-3.5-0.1c0-0.06-0.35-1.76-0.78-3.81c-0.42-2.04-1.25-5.97-1.82-8.7
		c-1.27-6.09-1.15-5.6-1.32-5.6c-0.1,0-0.14,3.25-0.14,9.1v9.1h-2.38h-2.38v-15.05L28.57,152.44z"/>
	<path class="st9" d="M47.15,166c-0.06-0.04-0.1-6.85-0.1-15.11v-15.01l0.81-0.08c0.43-0.04,1.18-0.06,1.64-0.01
		c0.46,0.03,1.23,0.06,1.72,0.07h0.87v12.46v12.46h3.29h3.28l0.04,2.56c0.03,1.4,0.03,2.59,0,2.66
		C58.64,166.13,47.27,166.14,47.15,166L47.15,166z"/>
	<path class="st9" d="M112.67,135.9c-2.46-0.39-4.4-1.72-5.28-3.66c-0.64-1.44-0.7-2.59-0.64-14.73
		c0.06-10.71,0.06-10.88,0.36-11.78c0.73-2.17,2.37-3.64,4.75-4.26c0.99-0.27,3.19-0.29,4.27-0.07c1.93,0.41,3.63,1.69,4.43,3.36
		l0.45,0.94v13.25c0,7.81-0.06,13.25-0.13,13.25s-0.31,0.29-0.52,0.66c-0.46,0.78-1.5,1.85-2.09,2.14
		c-0.22,0.11-0.52,0.27-0.63,0.35C117.12,135.74,113.93,136.09,112.67,135.9L112.67,135.9z M115.23,131.08
		c0.25-0.15,0.57-0.48,0.73-0.73c0.28-0.45,0.28-0.69,0.25-12.11l-0.04-11.67l-0.5-0.5c-0.67-0.67-1.4-0.77-2.09-0.31
		c-1.04,0.7-0.98-0.03-0.98,12.65v11.34l0.32,0.56c0.32,0.56,1.04,1.05,1.57,1.05C114.64,131.36,114.98,131.23,115.23,131.08
		L115.23,131.08z"/>
	<path class="st9" d="M5.32,135.19c-2.27-0.38-4.13-1.71-4.86-3.47c-0.14-0.35-0.29-0.63-0.35-0.63c-0.07,0-0.11-6.55-0.11-14.56
		v-14.56h2.59h2.59l0.03,13.28l0.04,13.29l0.39,0.5c0.66,0.85,1.71,1.01,2.53,0.36c0.91-0.71,0.85,0.17,0.9-14.3l0.03-13.14h2.31
		h2.31v13.77c0,14.98,0,14.9-0.8,16.37c-0.49,0.91-1.47,1.89-2.37,2.38c-1.18,0.63-3.67,0.98-5.24,0.71H5.32z"/>
	<path class="st9" d="M95.15,134.65c-2.56-0.56-4.23-2.2-4.76-4.68c-0.1-0.5-0.2-1.57-0.2-2.35v-1.44h2.07
		c1.13,0,2.28-0.04,2.56-0.08l0.52-0.08l0.06,1.86c0.04,1.22,0.13,2.02,0.25,2.27c0.42,0.87,1.83,1.09,2.52,0.41
		c0.53-0.55,0.7-1.23,0.7-2.97c0-3.68-0.52-4.76-3.99-8.37c-3.82-3.98-4.54-5.28-4.76-8.79c-0.14-2.06,0.1-3.92,0.63-5.06
		c1.02-2.21,3.5-3.59,6.44-3.59c2.9,0,5,1.12,6.06,3.22c0.5,0.99,0.66,2.04,0.66,4.62v2.28h-2.52h-2.52l-0.01-2.27
		c0-1.34-0.08-2.51-0.18-2.84c-0.18-0.63-0.88-1.19-1.48-1.19c-0.48,0-1.27,0.52-1.5,0.98c-0.29,0.59-0.24,3.53,0.1,4.83
		c0.46,1.82,1.02,2.62,4.06,5.74c3.18,3.28,4.03,4.71,4.44,7.35c0.25,1.57,0.17,4.44-0.15,5.56c-0.69,2.49-2.35,4.05-4.93,4.59
		C98.04,134.9,96.31,134.9,95.15,134.65L95.15,134.65z"/>
	<path class="st9" d="M74.15,134c-0.04-0.41-0.07-7.8-0.04-16.43l0.04-15.69l4.27,0.01c3.59,0.01,4.41,0.06,5.18,0.25
		c1.25,0.34,2.16,0.85,2.87,1.65c1.26,1.41,1.54,2.53,1.54,6.34c-0.01,2.49-0.04,2.91-0.32,3.81c-0.41,1.33-1.2,2.32-2.34,2.91
		c-0.95,0.5-1.08,0.71-0.53,0.84c1.01,0.22,2.1,1.36,2.59,2.66c0.29,0.8,0.31,1.12,0.39,6.72c0.07,5.53,0.1,5.92,0.38,6.68
		c0.15,0.43,0.25,0.83,0.21,0.87c-0.11,0.13-5.53,0.1-5.71-0.03c-0.31-0.2-0.36-1.05-0.46-6.68c-0.07-4.47-0.14-5.83-0.28-6.12
		c-0.32-0.63-0.81-0.85-2-0.92l-1.09-0.07l-0.03,6.92l-0.04,6.92l-2.27,0.04l-2.25,0.03l-0.1-0.73L74.15,134z M81.24,114.42
		c0.42-0.08,0.88-0.28,1.08-0.46c0.67-0.63,0.73-0.88,0.73-3.77c0-2.3-0.04-2.77-0.25-3.18c-0.35-0.69-1.01-0.99-2.16-0.99h-0.95
		v4.17c0,2.3,0.04,4.23,0.1,4.27c0.13,0.14,0.59,0.13,1.46-0.04H81.24z"/>
	<path class="st9" d="M25.28,134.21l-0.56-0.06l-1.16-6.26c-0.64-3.45-1.46-7.93-1.82-9.96c-0.41-2.21-0.74-3.73-0.84-3.77
		c-0.13-0.04-0.17,2.21-0.2,9.66l-0.04,9.71h-2.1h-2.1l-0.04-15.22c-0.01-8.39-0.01-15.24,0-15.25c0.03,0,1.67-0.04,3.64-0.08
		l3.6-0.08l0.07,0.34c0.1,0.39,1.3,7.04,2.74,15.18c0.55,3.08,1.04,5.71,1.11,5.87c0.06,0.14,0.1-4.87,0.08-11.13v-11.4h2.1h2.1
		l0.04,16.16c0.03,12.84,0,16.19-0.14,16.29c-0.18,0.1-5.35,0.11-6.48,0.01V134.21z"/>
	<path class="st9" d="M34.77,134.21l-0.46-0.06v-15.69v-15.67h2.87h2.87v15.69v15.69h-0.74c-0.42,0-1.5,0.03-2.42,0.06
		c-0.91,0.03-1.88,0.03-2.11-0.01L34.77,134.21z"/>
	<path class="st9" d="M59.62,134.07c-0.13-0.11-0.13-29.27-0.01-30.96l0.1-1.29h6.13h6.15v2.24v2.24h-3.22h-3.22v4.48v4.48h2.52
		h2.52v2.31v2.31h-3.15h-3.15v4.82c0,4.37,0.03,4.85,0.24,5.07c0.22,0.21,0.59,0.22,3.82,0.18l3.57-0.06l0.04,2.14l0.04,2.13h-6.15
		c-3.38,0-6.19-0.04-6.23-0.1L59.62,134.07z"/>
	<path class="st9" d="M46.08,133.23c0-0.07-0.28-2.13-0.63-4.59c-0.35-2.46-1.29-9.31-2.1-15.22c-0.81-5.9-1.51-10.92-1.55-11.16
		l-0.08-0.43h2.65h2.66l0.31,2.98c0.69,6.44,2.24,20.15,2.3,20.21c0.03,0.03,0.15-0.84,0.29-1.95c0.13-1.09,0.49-3.78,0.78-5.98
		c0.31-2.2,0.81-5.88,1.12-8.19c0.31-2.31,0.67-4.85,0.8-5.63l0.22-1.44h2.42c1.34,0,2.44,0.04,2.44,0.11
		c0,0.2-1.54,10.76-2.79,19.07c-0.7,4.66-1.36,9.13-1.48,9.94c-0.11,0.81-0.24,1.68-0.28,1.93l-0.08,0.45h-3.49
		C47.66,133.33,46.09,133.29,46.08,133.23L46.08,133.23z"/>
	<path class="st9" d="M56.44,95.71c-0.27-0.03-1.12-0.13-1.89-0.21c-8.53-0.91-17.41-4.43-24.37-9.65
		c-8.89-6.68-15.1-15.71-17.93-26.12c-1.96-7.2-2.03-15.49-0.2-22.87C16.36,19.42,29.72,6.05,47.4,1.47C52.22,0.22,54.4,0,61.64,0
		c3.22,0,5.85,0.06,5.85,0.11c0,0.06,0.55,0.2,1.23,0.28c4.94,0.71,11.02,2.7,15.67,5.14c9.29,4.89,16.27,11.99,20.96,21.32
		c3.33,6.64,4.99,13.63,4.99,21.09c0,4.22-0.46,7.79-1.54,11.93c-2.73,10.56-9.71,20.39-19,26.82c-0.55,0.38-1.04,0.76-1.09,0.84
		c-0.04,0.08-0.29,0.24-0.53,0.36c-0.25,0.11-0.7,0.36-1.01,0.55c-0.31,0.18-0.71,0.42-0.91,0.52c-0.2,0.11-0.73,0.41-1.19,0.66
		c-0.46,0.27-0.94,0.56-1.06,0.66c-0.11,0.11-0.29,0.2-0.39,0.2c-0.11,0-0.48,0.15-0.84,0.34c-0.74,0.38-2.91,1.34-3.03,1.34
		c-0.04,0-0.34,0.13-0.67,0.27c-0.32,0.15-0.84,0.35-1.15,0.43c-0.31,0.1-0.74,0.25-0.98,0.36c-0.22,0.1-0.8,0.28-1.26,0.41
		c-0.46,0.13-1.27,0.35-1.82,0.5c-1.47,0.39-4.83,1.06-6.72,1.33c-1.2,0.17-2.88,0.24-5.95,0.27C58.85,95.76,56.7,95.74,56.44,95.71
		L56.44,95.71z M71,90.98c2.04-0.39,4.89-1.18,7-1.95c3.85-1.39,8.21-3.87,11.46-6.5l0.76-0.6h-0.45c-0.25,0-0.64,0.1-0.88,0.21
		c-0.25,0.1-1.11,0.35-1.92,0.55c-3.39,0.8-6.3,0.98-9.26,0.56l-1.57-0.21l-1.41,1.39c-2.62,2.58-5.5,4.43-9.29,5.98
		c-0.71,0.28-1.4,0.66-1.54,0.81c-0.25,0.27-0.24,0.28,2.48,0.2c2.13-0.06,3.15-0.14,4.62-0.43L71,90.98z M57.56,89.31
		c2.21-0.53,3.53-1.01,5.34-1.92c1.86-0.92,4.27-2.49,4.1-2.65c-0.07-0.06-0.69-0.48-1.39-0.92c-1.25-0.83-3.01-2.45-4.09-3.77
		l-0.56-0.69l-0.9,0.15c-3.49,0.64-7.17,0.8-10.14,0.45c-3.95-0.46-8.32-1.85-11.83-3.74c-4.52-2.45-8.65-6.11-12-10.64
		c-1.11-1.5-2.79-4.26-3.63-5.95c-0.94-1.89-1.12-1.86-1.25,0.21c-0.31,5.27,1.16,10.81,4.08,15.36c1.48,2.32,4.26,5.38,6.57,7.24
		c4.31,3.47,9.61,5.91,14.98,6.89c2.21,0.41,2.18,0.41,5.88,0.36c3.05-0.03,3.5-0.07,4.83-0.39L57.56,89.31z M81.37,79.83
		C87.9,78.5,93.32,74,95.56,68.07c1.34-3.57,1.32-8.44-0.07-12.42c-0.46-1.33-0.59-1.25-1.92,1.19
		c-2.98,5.49-7.23,10.34-12.06,13.78c-3.43,2.45-7.72,4.57-11.34,5.57c-0.88,0.25-1.72,0.56-1.86,0.7
		c-0.24,0.22-0.22,0.25,0.28,0.59c1.15,0.76,3.15,1.64,4.59,2.03C75.66,80.17,79.08,80.29,81.37,79.83z M68,74.09
		c5.8-1.27,11.82-4.85,16.74-9.89c3.53-3.63,5.45-6.37,7.72-11.05l1.08-2.24l-0.78-0.81c-1.43-1.47-3.39-2.9-5.29-3.85
		c-2.48-1.23-4.45-1.71-7.51-1.81c-3.35-0.11-5.62,0.27-8.19,1.36c-5.59,2.38-9.71,7.18-10.83,12.6c-0.27,1.29-0.29,1.78-0.24,3.92
		c0.08,2.74,0.35,4.08,1.26,6.34c0.76,1.86,2.2,4.3,3.15,5.32c0.45,0.48,1.08,0.49,2.9,0.1L68,74.09z M57.83,70.11
		c-2-3.87-2.94-8.51-2.52-12.48c0.69-6.36,3.45-11.3,8.44-15.14c2.84-2.17,6.47-3.91,9.52-4.54c0.45-0.08,0.84-0.22,0.9-0.29
		c0.11-0.18-0.32-0.64-1.62-1.74c-4.76-3.96-10.35-6.37-16.88-7.3c-1.39-0.18-2.31-0.21-5.18-0.14c-3.7,0.1-5.22,0.27-7.56,0.88
		c-1.37,0.36-4.15,1.36-5.69,2.04c-1.19,0.53-3.7,2.06-5.03,3.07c-1.41,1.05-4.02,3.54-5.25,5.01c-0.94,1.13-2.69,3.73-3.24,4.79
		l-0.34,0.66l0.48,1.37c1.16,3.38,2.66,6.47,4.48,9.2c4.13,6.22,9.1,9.94,17.59,13.12c1.65,0.63,5,1.62,7,2.07
		c1.61,0.38,4.83,0.97,5.34,0.98l0.38,0.01l-0.83-1.6L57.83,70.11z M102.49,66.22c2.8-5.62,4.13-11.15,4.33-17.9
		c0.27-9.13-2.11-17.88-6.81-25.07C95.58,16.47,90,11.39,83.01,7.8c-3.29-1.69-4.66-2.18-4.82-1.71c-0.01,0.08,0.25,0.32,0.63,0.56
		c3.22,2,7.52,6.08,10.13,9.59c4.82,6.51,7.8,13.91,8.54,21.22c0.1,1.08,0.14,2.8,0.08,4.8c-0.04,1.71-0.01,3.14,0.04,3.18
		c0.21,0.13,1.65,2.41,2.14,3.38c1.2,2.41,2.1,5.7,2.27,8.39c0.04,0.7,0.11,1.43,0.14,1.65c0.04,0.24,0,0.38-0.11,0.38
		c-0.13,0-0.18,0.5-0.21,1.86c-0.03,1.01-0.14,2.45-0.25,3.18c-0.11,0.73-0.27,1.74-0.35,2.24c-0.07,0.5-0.2,1.12-0.28,1.37
		c-0.18,0.56-0.07,0.98,0.2,0.74c0.11-0.08,0.7-1.18,1.33-2.42V66.22z M19.26,63.18c-0.04-0.35-0.11-0.87-0.15-1.13
		c-0.03-0.27-0.1-1.72-0.15-3.22c-0.04-1.5-0.13-2.76-0.18-2.8c-0.17-0.11,0.13-2.87,0.5-4.76c0.2-0.97,0.66-2.63,1.02-3.71
		l0.64-1.96l-0.24-1.26c-0.36-1.96-0.57-4.99-0.48-6.96c0.38-7.63,2.97-14.17,8.56-21.61c0.99-1.32,1.26-1.75,1.06-1.75
		c-0.34,0-3.82,3.35-5.14,4.92c-5.62,6.75-8.96,15.15-9.38,23.57c-0.04,0.94-0.14,2.04-0.22,2.46c-0.42,2.11,0.07,7.56,1.09,11.85
		c0.55,2.37,2.32,7.14,2.59,6.97c0.06-0.03,0.14,0,0.2,0.08C19.19,64.21,19.34,63.81,19.26,63.18z M93.12,42.16
		c-0.57-11.93-5.21-21.62-13.74-28.75c-4.16-3.49-10.46-6.08-16.57-6.83c-2.16-0.27-8.58-0.1-10.92,0.29
		C42.56,8.41,34.9,13.09,30.22,20.1c-2.74,4.13-4.76,9.41-5.71,14.98c-0.34,1.95-0.53,4.69-0.32,4.48c0.08-0.07,0.55-0.67,1.04-1.33
		c1.09-1.47,3.68-4.08,5.45-5.49c5.25-4.2,11.88-6.92,18.32-7.53c2.23-0.21,5.95-0.17,7.76,0.07c7.7,1.06,15.13,5,19.83,10.5
		c1.18,1.37,2.46,3.21,3.19,4.54l0.36,0.67l1.9,0.08c2.97,0.11,4.99,0.63,7.66,1.9c0.77,0.38,1.85,0.99,2.38,1.37
		c1.22,0.87,1.19,0.94,1.04-2.2L93.12,42.16z"/>
</g>
</svg>
