<?xml version="1.0" encoding="utf-8"?>
<!DOCTYPE svg PUBLIC "-//W3C//DTD SVG 1.0//EN" "http://www.w3.org/TR/2001/REC-SVG-20010904/DTD/svg10.dtd">
<svg version="1.0" xmlns="http://www.w3.org/2000/svg" width="121px" height="170px" viewBox="0 0 121 170" preserveAspectRatio="xMidYMid meet">
 <g fill="#fbfbfa">
  <path d="M0 150.48 l0 -19.82 0.32 0 c0.24 0 0.36 0.15 0.56 0.63 0.80 1.93 2.81 3.26 5.35 3.52 1.11 0.11 2.97 -0.25 3.91 -0.76 1.47 -0.80 2.58 -2.30 2.97 -4.05 0.28 -1.22 0.42 -12.28 0.27 -21.43 l-0.10 -6.20 -1.88 0 -1.88 0 -0.03 13.14 c-0.04 12.95 -0.04 13.12 -0.34 13.61 -0.43 0.76 -1.08 1.12 -1.97 1.12 -0.97 0 -1.60 -0.27 -2.02 -0.85 l-0.34 -0.48 -0.04 -13.26 -0.03 -13.28 -2.38 0 -2.38 0 0 -51.19 0 -51.19 27.87 0 c27.08 0 27.87 0.01 27.87 0.27 0 0.22 -0.15 0.27 -1.08 0.35 -2.59 0.24 -6.48 1.08 -9.57 2.07 -11.34 3.66 -20.57 10.77 -26.75 20.63 -5.49 8.77 -8.02 19.45 -6.93 29.20 0.90 7.97 3.75 15.38 8.47 21.99 8.21 11.48 20.66 18.78 35.15 20.61 2.27 0.28 9.40 0.24 11.62 -0.07 1.96 -0.28 5.31 -0.94 6.79 -1.34 0.55 -0.15 1.36 -0.38 1.82 -0.50 0.46 -0.13 1.04 -0.31 1.26 -0.41 0.24 -0.11 0.67 -0.27 0.98 -0.36 0.31 -0.08 0.83 -0.28 1.15 -0.43 0.34 -0.14 0.63 -0.27 0.67 -0.27 0.11 0 2.28 -0.97 3.03 -1.34 0.36 -0.18 0.73 -0.34 0.84 -0.34 0.10 0 0.28 -0.08 0.39 -0.20 0.13 -0.10 0.60 -0.39 1.06 -0.66 0.46 -0.25 0.99 -0.55 1.19 -0.66 0.20 -0.10 0.60 -0.34 0.91 -0.52 0.31 -0.18 0.76 -0.43 1.01 -0.55 0.24 -0.13 0.49 -0.28 0.53 -0.36 0.06 -0.08 0.55 -0.46 1.09 -0.84 9.30 -6.43 16.27 -16.26 19 -26.82 1.41 -5.45 1.86 -10.76 1.33 -15.87 -0.99 -9.37 -4.65 -18.07 -10.73 -25.52 -4.72 -5.78 -11.29 -10.69 -18.40 -13.72 -3.67 -1.57 -8.70 -3.01 -12.28 -3.53 -1.15 -0.15 -1.23 -0.20 -1.23 -0.49 l0 -0.32 26.96 0 26.96 0 0 52.94 c0 42.25 -0.04 52.94 -0.17 52.94 -0.29 0 -0.45 -0.17 -0.81 -0.91 -1.23 -2.49 -4.69 -3.87 -7.74 -3.07 -2.39 0.62 -4.03 2.09 -4.75 4.26 -0.29 0.90 -0.31 1.09 -0.35 11.39 -0.06 11.69 -0.01 12.86 0.63 14.28 1.02 2.24 3.36 3.63 6.19 3.66 1.23 0.01 2.86 -0.25 3.22 -0.53 0.11 -0.10 0.41 -0.25 0.63 -0.36 0.59 -0.29 1.62 -1.36 2.09 -2.14 0.29 -0.49 0.48 -0.66 0.73 -0.66 l0.34 0 0 19.26 0 19.26 -10.99 0 -10.98 0 -0.04 -2.13 -0.04 -2.14 -3.39 -0.04 -3.40 -0.03 0 -6.16 0 -6.16 2.65 0 2.65 0 0.06 -1.78 c0.04 -0.99 0.03 -1.85 -0.04 -1.92 -0.06 -0.07 -1.27 -0.10 -2.70 -0.06 l-2.59 0.07 0.03 -4.22 0.03 -4.22 3.33 -0.04 3.32 -0.03 0 -2.17 0 -2.17 -5.60 0 -5.60 0 0 16.60 0 16.60 -43.83 0 -43.83 0 0 -19.82z m84.18 13.70 c0.01 -2.91 0.04 -9.86 0.07 -15.45 0.04 -5.59 0.03 -10.49 -0.01 -10.88 l-0.08 -0.74 -1.90 0 -1.89 0 0.06 10.57 0.04 10.59 -0.48 -0.04 -0.49 -0.04 -1.37 -7.84 c-0.74 -4.31 -1.57 -9.03 -1.83 -10.50 l-0.46 -2.66 -3.21 0 -3.22 0 -0.04 15.27 c-0.03 8.40 0 15.60 0.04 16.01 l0.08 0.73 1.68 0 1.67 0 0 -10.92 0 -10.92 0.60 0 0.62 0 0.45 2.84 c0.63 3.89 2.94 17.09 3.26 18.63 l0.14 0.66 3.14 0 3.14 0 0.01 -5.28z m-64.60 3.60 c2.72 -0.45 4.51 -2.03 5.27 -4.64 0.20 -0.69 0.24 -2.11 0.25 -11.55 0.03 -11.83 0.04 -11.65 -0.83 -13.25 -0.48 -0.88 -1.78 -2.09 -2.73 -2.53 -3.71 -1.76 -8.04 -0.17 -9.52 3.52 l-0.32 0.80 -0.04 10.71 c-0.03 7.41 0.01 10.99 0.11 11.65 0.62 3.64 3.96 5.91 7.81 5.29z m46.38 -0.10 c0 -0.14 0.03 -7.20 0.06 -15.69 l0.06 -15.45 -2.44 0 -2.44 0 0 15.69 0 15.69 2.38 0 c2.17 0 2.38 -0.03 2.38 -0.24z m-32.97 -1.12 c0.06 -0.28 0.06 -4.38 0 -9.10 l-0.11 -8.58 0.57 0 c0.48 0 0.57 0.06 0.64 0.32 0.04 0.17 0.53 2.55 1.11 5.28 0.57 2.73 1.40 6.65 1.82 8.70 0.43 2.04 0.78 3.75 0.78 3.81 0 0.06 1.37 0.10 3.07 0.10 l3.05 0 0.10 -0.64 c0.11 -0.81 0.08 -22.04 -0.04 -26.52 l-0.08 -3.29 -1.78 -0.04 -1.79 -0.04 0 10.31 0 10.29 -0.48 0 c-0.34 0 -0.50 -0.07 -0.56 -0.24 -0.04 -0.14 -0.39 -1.89 -0.77 -3.89 -1.89 -9.79 -2.90 -14.86 -3.04 -15.07 -0.04 -0.07 -1.51 -0.13 -3.29 -0.13 l-3.21 0 0 14.63 0 14.63 1.96 0 1.95 0 0.10 -0.52z m25.26 -3.12 l0 -2.24 -3.29 0 -3.29 0 0 -12.45 0 -12.45 -1.64 -0.06 c-0.91 -0.03 -1.86 -0.03 -2.10 0 l-0.46 0.06 0 14.59 c0 8.04 0.04 14.65 0.10 14.69 0.04 0.06 2.48 0.10 5.39 0.10 l5.29 0 0 -2.24z m40.53 -29.20 c2.58 -0.55 4.26 -2.11 4.93 -4.59 0.32 -1.18 0.39 -3.22 0.15 -4.72 -0.41 -2.65 -1.26 -4.08 -4.44 -7.35 -3.04 -3.12 -3.60 -3.92 -4.06 -5.74 -0.34 -1.32 -0.41 -5.07 -0.10 -5.67 0.49 -0.97 2.21 -1.33 3.19 -0.66 0.67 0.45 0.80 1.04 0.81 3.71 l0.01 2.28 2.14 -0.04 2.13 -0.04 -0.01 -1.68 c-0.01 -2.91 -0.42 -4.31 -1.62 -5.62 -2.88 -3.14 -8.96 -2.20 -10.76 1.67 -0.56 1.19 -0.77 2.98 -0.57 4.90 0.31 3.05 1.04 4.30 4.71 8.11 3.57 3.71 3.99 4.64 3.99 8.79 0 2.16 -0.14 2.83 -0.70 3.39 -0.36 0.35 -0.49 0.39 -1.40 0.39 -1.85 0 -2.13 -0.36 -2.21 -2.97 l-0.06 -1.79 -2.16 0 -2.16 0 0 1.02 c0.01 3.57 1.76 5.92 4.96 6.61 1.13 0.25 2.04 0.25 3.22 0z m-20.35 -5.04 c0.06 -2.77 0.10 -5.88 0.11 -6.92 l0.01 -1.86 1.44 0.06 c1.57 0.06 2 0.22 2.35 0.92 0.14 0.29 0.21 1.65 0.28 6.12 0.10 5.63 0.15 6.48 0.46 6.68 0.08 0.06 1.18 0.11 2.42 0.11 l2.27 0 -0.15 -0.45 c-0.10 -0.29 -0.20 -2.67 -0.25 -6.34 -0.08 -5.59 -0.10 -5.92 -0.39 -6.72 -0.49 -1.30 -1.58 -2.44 -2.59 -2.66 -0.36 -0.08 -0.39 -0.14 -0.35 -0.66 0.04 -0.55 0.08 -0.60 0.88 -1.02 1.13 -0.59 1.93 -1.58 2.34 -2.91 0.27 -0.87 0.31 -1.33 0.31 -3.39 0.01 -3.32 -0.29 -4.54 -1.48 -5.88 -1.33 -1.50 -2.56 -1.86 -6.83 -1.99 -1.74 -0.04 -3.52 -0.04 -3.95 0.01 l-0.81 0.10 0 15.43 c0 8.49 0.04 15.67 0.08 15.97 l0.10 0.53 1.83 -0.04 1.83 -0.04 0.08 -5.04z m-46.90 4.55 c0.03 -0.04 0.01 -7.16 -0.03 -15.83 l-0.07 -15.76 -1.62 -0.04 -1.62 -0.04 -0.10 1.65 c-0.06 0.91 -0.07 6.05 -0.03 11.43 l0.07 9.76 -0.48 0 c-0.39 0 -0.50 -0.07 -0.56 -0.31 -0.04 -0.18 -0.52 -2.81 -1.06 -5.85 -1.71 -9.59 -2.65 -14.76 -2.72 -15.08 -0.07 -0.31 -0.13 -0.32 -1.93 -0.32 -1.01 0 -2.46 0.04 -3.22 0.10 l-1.36 0.08 0.03 14.79 0.04 14.79 1.68 0 1.68 0 0.04 -9.71 0.03 -9.71 0.59 0.04 0.59 0.04 0.66 3.71 c0.38 2.04 1.19 6.53 1.83 9.97 l1.16 6.26 0.56 0.06 c0.78 0.08 5.78 0.04 5.84 -0.04z m7.11 0 l0.94 0 0.07 -12.77 c0.03 -7.03 0.03 -13.91 0 -15.27 l-0.07 -2.49 -2.42 0 -2.44 0 0 15.25 0 15.27 0.46 0.06 c0.24 0.04 0.91 0.04 1.48 0.01 0.57 -0.03 1.46 -0.06 1.97 -0.06z m32.98 -1.75 l0 -1.68 -3.66 0.06 c-3.28 0.04 -3.67 0.03 -3.88 -0.20 -0.21 -0.21 -0.24 -0.74 -0.24 -5.48 l0 -5.24 3.15 0 3.15 0 0 -1.89 0 -1.89 -2.52 0 -2.52 0 0 -4.90 0 -4.90 3.29 0 3.29 0 0 -1.82 0 -1.82 -5.84 0.03 -5.85 0.04 -0.04 15.55 c-0.01 8.56 0 15.63 0.04 15.73 0.04 0.14 1.29 0.17 5.84 0.14 l5.78 -0.04 0 -1.68z m-18.91 0.46 c0.04 -0.25 0.17 -1.12 0.28 -1.93 0.13 -0.81 0.78 -5.28 1.48 -9.94 1.40 -9.38 2.63 -17.90 2.65 -18.16 0 -0.14 -0.48 -0.18 -1.95 -0.18 l-1.93 0 -0.22 1.44 c-0.13 0.78 -0.49 3.32 -0.80 5.63 -0.31 2.31 -0.81 5.99 -1.12 8.19 -0.29 2.20 -0.66 4.89 -0.78 5.99 l-0.25 1.99 -0.45 0 c-0.42 0 -0.46 -0.04 -0.53 -0.52 -0.07 -0.49 -1.72 -15.35 -2.27 -20.45 l-0.24 -2.28 -2.17 0 -2.16 0 0.08 0.46 c0.04 0.24 0.71 5.08 1.48 10.74 0.77 5.66 1.68 12.31 2.03 14.77 0.35 2.46 0.63 4.52 0.63 4.59 0 0.06 1.39 0.10 3.08 0.10 l3.07 0 0.08 -0.45z"/>
  <path d="M17.30 164.32 c-0.49 -0.13 -0.88 -0.48 -1.15 -0.99 -0.24 -0.49 -0.25 -1.13 -0.25 -11.86 0 -10.71 0.01 -11.37 0.25 -11.74 0.59 -0.90 2.04 -1.22 3.12 -0.71 0.98 0.48 0.94 -0.18 0.92 12.66 -0.03 10.98 -0.04 11.57 -0.28 11.90 -0.50 0.69 -1.60 0.99 -2.62 0.74z"/>
  <path d="M79.36 114.88 c-0.06 -0.04 -0.10 -2.16 -0.10 -4.69 l0 -4.59 1.37 0 c1.60 0 2.20 0.22 2.58 0.99 0.22 0.41 0.25 0.90 0.25 3.60 0 3.33 -0.04 3.54 -0.73 4.19 -0.20 0.18 -0.66 0.38 -1.08 0.46 -0.85 0.15 -2.16 0.18 -2.30 0.04z"/>
  <path d="M113.30 131.53 c-0.28 -0.13 -0.62 -0.48 -0.80 -0.80 l-0.32 -0.56 0 -11.76 c0 -13.14 -0.06 -12.37 0.98 -13.07 0.42 -0.28 0.63 -0.32 1.44 -0.28 0.87 0.04 0.98 0.08 1.47 0.57 l0.52 0.52 0.04 12.09 c0.03 11.85 0.03 12.09 -0.25 12.53 -0.59 0.97 -1.99 1.30 -3.08 0.76z"/>
 </g>
 <g fill="#d1d1d1">
  <path d="M65.96 167.15 c0 -0.92 0.04 -1.19 0.20 -1.19 0.22 0 0.36 0.43 0.36 1.19 0 0.76 -0.14 1.19 -0.36 1.19 -0.15 0 -0.20 -0.27 -0.20 -1.19z"/>
  <path d="M32.91 161.47 c0 -5.03 0.03 -6.02 0.20 -6.02 0.10 0 0.22 0.14 0.28 0.32 0.11 0.41 0.11 10.99 0 11.41 -0.06 0.17 -0.18 0.31 -0.28 0.31 -0.17 0 -0.20 -0.99 -0.20 -6.02z"/>
  <path d="M43.97 154.33 c0 -10.76 0.03 -12.74 0.20 -12.74 0.10 0 0.22 0.14 0.28 0.32 0.11 0.41 0.11 24.44 0 24.86 -0.06 0.17 -0.18 0.31 -0.28 0.31 -0.17 0 -0.20 -1.99 -0.20 -12.74z"/>
  <path d="M19.75 152.58 c0 -5.50 0.03 -10.17 0.08 -10.36 0.04 -0.20 0.17 -0.35 0.28 -0.35 0.17 0 0.20 1.61 0.20 10.36 0 10.21 0 10.36 -0.28 10.36 -0.27 0 -0.27 -0.17 -0.28 -10.01z"/>
  <path d="M25.07 157.27 c0 -2.09 0.03 -2.52 0.20 -2.52 0.28 0 0.34 0.48 0.35 2.52 0.01 1.97 -0.06 2.52 -0.35 2.52 -0.17 0 -0.20 -0.43 -0.20 -2.52z"/>
  <path d="M65.96 157.13 c0 -0.98 0.04 -1.26 0.20 -1.26 0.24 0 0.36 0.43 0.36 1.26 0 0.83 -0.13 1.26 -0.36 1.26 -0.15 0 -0.20 -0.28 -0.20 -1.26z"/>
  <path d="M39.44 157.94 c-0.11 -0.43 -0.08 -1.50 0.06 -1.93 l0.11 -0.35 0.01 0.35 c0.01 0.20 0.08 0.45 0.15 0.56 0.08 0.14 0.14 -3.40 0.14 -10.11 l0 -10.34 0.56 0 c0.46 0 0.56 0.04 0.56 0.28 0 0.18 -0.10 0.28 -0.28 0.28 -0.28 0 -0.28 0.10 -0.28 10.78 l0 10.78 -0.48 0 c-0.36 0 -0.49 -0.07 -0.56 -0.31z"/>
  <path d="M84.17 149.22 c0 -5.34 0.03 -6.37 0.20 -6.37 0.10 0 0.22 0.14 0.28 0.32 0.11 0.41 0.11 11.69 0 12.11 -0.06 0.17 -0.18 0.31 -0.28 0.31 -0.17 0 -0.20 -1.04 -0.20 -6.37z"/>
  <path d="M65.96 153.14 c0 -1.64 0.04 -2.03 0.20 -2.03 0.28 0 0.36 0.45 0.36 2.03 0 1.58 -0.08 2.03 -0.36 2.03 -0.15 0 -0.20 -0.39 -0.20 -2.03z"/>
  <path d="M97.47 150.76 l0 -0.77 -2.62 -0.03 -2.63 -0.04 -0.04 -1.01 c-0.03 -0.84 0 -1.02 0.17 -1.02 0.24 0 0.43 0.78 0.34 1.30 l-0.06 0.31 2.66 0 2.67 0 0.04 0.56 c0.07 0.78 -0.08 1.47 -0.32 1.47 -0.15 0 -0.21 -0.20 -0.21 -0.77z"/>
  <path d="M25.07 143.97 c0 -2.53 0.03 -3.08 0.20 -3.08 0.31 0 0.36 0.48 0.36 3.08 0 2.60 -0.06 3.08 -0.36 3.08 -0.17 0 -0.20 -0.55 -0.20 -3.08z"/>
  <path d="M65.93 140.30 c-0.03 -2.25 -0.04 -4.12 -0.04 -4.13 0 0 0.13 -0.04 0.28 -0.07 0.28 -0.04 0.28 0.04 0.32 3.67 0.04 3.94 0 4.62 -0.32 4.62 -0.17 0 -0.21 -0.69 -0.24 -4.09z"/>
  <path d="M84.17 139.56 c0 -2.11 0.04 -2.59 0.20 -2.59 0.29 0 0.36 0.46 0.36 2.59 0 2.13 -0.07 2.59 -0.36 2.59 -0.15 0 -0.20 -0.48 -0.20 -2.59z"/>
  <path d="M31.51 133.45 c0 -0.62 0.06 -0.83 0.20 -0.83 0.21 0 0.36 0.42 0.36 1.06 0 0.32 -0.07 0.46 -0.28 0.52 -0.25 0.07 -0.28 0 -0.28 -0.76z"/>
  <path d="M71.56 132.44 c0 -0.95 -0.04 -1.95 -0.08 -2.20 -0.08 -0.41 -0.07 -0.43 0.24 -0.39 l0.34 0.04 0 2.10 c0 1.89 -0.03 2.10 -0.24 2.14 -0.22 0.04 -0.25 -0.11 -0.25 -1.69z"/>
  <path d="M13.30 117.78 c0 -8.49 0.03 -10.08 0.20 -10.08 0.10 0 0.22 0.14 0.28 0.32 0.11 0.41 0.11 19.12 0 19.54 -0.06 0.17 -0.18 0.31 -0.28 0.31 -0.17 0 -0.20 -1.60 -0.20 -10.08z"/>
  <path d="M78.43 123.31 l0 -2.87 0.49 0 c0.34 0 0.49 0.07 0.49 0.21 0 0.11 -0.10 0.21 -0.21 0.21 -0.18 0 -0.21 0.35 -0.21 2.35 0 2.51 -0.06 2.97 -0.36 2.97 -0.15 0 -0.20 -0.52 -0.20 -2.87z"/>
  <path d="M39.63 110.15 c0 -3.07 0.03 -3.71 0.20 -3.71 0.31 0 0.36 0.48 0.36 3.71 0 3.24 -0.06 3.71 -0.36 3.71 -0.17 0 -0.20 -0.64 -0.20 -3.71z"/>
  <path d="M103.49 109.88 c0 -1.69 0.03 -2.04 0.21 -2.04 0.28 0 0.36 0.66 0.32 2.45 -0.04 1.33 -0.07 1.54 -0.28 1.58 -0.24 0.04 -0.25 -0.13 -0.25 -1.99z"/>
  <path d="M71.70 106.34 c-0.18 -0.04 -0.21 -0.41 -0.21 -2.28 0 -1.97 0.03 -2.23 0.24 -2.28 0.13 -0.04 0.27 -0.03 0.31 0.01 0.13 0.11 0.10 4.48 -0.01 4.55 -0.07 0.03 -0.21 0.03 -0.32 0z"/>
  <path d="M59.55 102.91 c0.03 -0.84 0.08 -1.02 0.29 -1.06 0.21 -0.04 0.24 0.08 0.24 1.01 0 0.98 -0.03 1.06 -0.28 1.06 -0.27 0 -0.29 -0.07 -0.25 -1.01z"/>
 </g>
 <g fill="#fbe305">
  <path d="M64.67 74.41 c-0.95 -1.02 -2.39 -3.46 -3.15 -5.32 -0.97 -2.41 -1.19 -3.56 -1.26 -6.76 -0.06 -2.55 -0.03 -3.03 0.24 -4.34 1.46 -7.06 7.83 -12.77 15.52 -13.86 1.78 -0.27 6.37 -0.11 7.81 0.25 3.66 0.94 6.33 2.42 9.06 5.06 0.84 0.81 1.08 1.13 1.08 1.44 0 0.78 -2.74 6.13 -4.31 8.37 -1.95 2.79 -5.15 6.27 -7.65 8.30 -5.21 4.23 -11.79 7.23 -15.92 7.24 -0.97 0 -1.08 -0.03 -1.41 -0.38z"/>
 </g>
 <g fill="#f7b030">
  <path d="M37.46 86.74 c-2 -1.01 -4.29 -2.48 -6.02 -3.88 -2.31 -1.86 -5.08 -4.92 -6.57 -7.24 -3.03 -4.71 -4.44 -10.35 -4.08 -16.18 l0.10 -1.61 0.66 0 0.66 0 0.67 1.37 c0.77 1.62 2.83 4.94 3.94 6.39 0.56 0.74 0.77 1.13 0.77 1.46 0 0.42 -0.03 0.45 -0.53 0.45 -0.46 0 -0.59 -0.07 -0.88 -0.49 -0.18 -0.27 -0.71 -1.04 -1.18 -1.71 -0.46 -0.67 -0.92 -1.32 -1.02 -1.41 -0.08 -0.10 -0.17 -0.28 -0.17 -0.39 0 -0.11 -0.07 -0.20 -0.14 -0.20 -0.08 0 -0.25 -0.24 -0.39 -0.53 -0.13 -0.28 -0.28 -0.55 -0.32 -0.59 -0.04 -0.04 -0.17 -0.25 -0.29 -0.49 -0.73 -1.41 -0.70 -1.44 -0.60 0.70 0.06 1.08 0.18 2.46 0.29 3.08 0.11 0.62 0.27 1.48 0.35 1.93 0.07 0.45 0.25 1.12 0.39 1.47 0.67 1.69 1.55 3.66 1.88 4.26 0.56 0.98 2.39 3.66 2.93 4.27 1.46 1.68 3.61 3.74 5.08 4.86 2.34 1.81 3.08 2.28 5.28 3.39 l1.93 0.97 0 0.53 c0 0.49 -0.03 0.52 -0.45 0.52 -0.28 -0.01 -1.20 -0.38 -2.28 -0.92z"/>
  <path d="M23.67 38.79 l0 -1.26 0.56 0 c0.50 0 0.56 0.04 0.56 0.34 0 0.18 0.10 0.36 0.21 0.42 0.31 0.11 0.25 0.87 -0.10 1.34 -0.22 0.32 -0.42 0.42 -0.77 0.42 l-0.46 0 0 -1.26z"/>
 </g>
 <g fill="#f8a71e">
  <path d="M48.46 90.11 c-1.12 -0.14 -3.66 -0.64 -4.83 -0.98 -1.82 -0.52 -4.03 -1.32 -4.20 -1.53 -0.20 -0.24 -1.54 -0.91 -1.83 -0.91 -0.13 0 -0.31 -0.08 -0.39 -0.20 -0.08 -0.10 -0.50 -0.36 -0.92 -0.59 -1.50 -0.77 -5.28 -3.53 -6.22 -4.52 -0.24 -0.24 -0.50 -0.43 -0.60 -0.43 -0.10 0 -0.18 -0.07 -0.18 -0.17 0 -0.08 -0.39 -0.57 -0.88 -1.08 -1.44 -1.53 -1.76 -1.93 -2.84 -3.54 -1.33 -1.97 -1.64 -2.52 -2.41 -4.31 -1.08 -2.52 -1.62 -4.61 -1.79 -6.85 -0.04 -0.53 0.03 -0.32 0.21 0.69 0.98 5.22 3.22 9.64 6.93 13.58 0.62 0.66 1.13 1.16 1.13 1.12 0 -0.04 0.25 0.20 0.56 0.53 1.12 1.25 4.66 3.84 6.57 4.83 0.46 0.24 0.88 0.43 0.92 0.45 0.04 0.01 0.53 0.25 1.09 0.53 0.55 0.29 1.01 0.48 1.01 0.42 0 -0.07 -0.87 -0.55 -1.93 -1.08 -2.20 -1.11 -2.94 -1.58 -5.28 -3.39 -1.47 -1.12 -3.63 -3.18 -5.08 -4.86 -0.53 -0.62 -2.37 -3.29 -2.93 -4.27 -0.32 -0.60 -1.20 -2.56 -1.88 -4.26 -0.14 -0.35 -0.32 -1.02 -0.39 -1.47 -0.08 -0.45 -0.24 -1.34 -0.36 -2 -0.25 -1.40 -0.43 -4.99 -0.29 -5.91 l0.10 -0.64 0.32 0.32 c0.31 0.31 0.50 0.63 0.98 1.57 0.08 0.18 0.21 0.32 0.27 0.32 0.07 0 0.07 0.07 0.03 0.14 -0.04 0.08 -0.03 0.14 0.04 0.14 0.08 0 0.18 0.15 0.22 0.35 0.06 0.20 0.15 0.35 0.24 0.35 0.08 0 0.10 0.07 0.06 0.14 -0.04 0.08 0.01 0.18 0.13 0.22 0.13 0.04 0.22 0.17 0.22 0.27 0 0.11 0.08 0.28 0.17 0.38 0.10 0.10 0.56 0.74 1.02 1.41 1.29 1.88 1.47 2.13 1.65 2.18 0.13 0.04 0.13 0.01 0.01 -0.14 -1.61 -2.07 -3.50 -5.01 -4.43 -6.88 -0.29 -0.60 -0.53 -1.12 -0.53 -1.16 0 -0.04 0.20 0.13 0.42 0.38 0.24 0.24 0.42 0.52 0.42 0.62 0 0.11 0.08 0.20 0.20 0.20 0.11 0 0.24 0.21 0.28 0.49 0.06 0.27 0.15 0.49 0.22 0.49 0.07 0 0.20 0.22 0.28 0.49 0.08 0.27 0.22 0.49 0.29 0.49 0.07 0 0.13 0.10 0.13 0.21 0 0.11 0.07 0.21 0.14 0.21 0.08 0 0.14 0.08 0.14 0.20 0 0.11 0.08 0.29 0.18 0.39 0.10 0.10 0.42 0.57 0.73 1.05 0.31 0.49 0.64 0.88 0.74 0.88 0.08 0 0.17 0.11 0.17 0.27 0 0.14 0.10 0.34 0.22 0.45 0.11 0.10 0.31 0.35 0.42 0.57 0.11 0.21 0.28 0.39 0.39 0.39 0.10 0 0.49 0.39 0.88 0.88 0.95 1.16 3.77 3.89 5.13 4.97 4.79 3.80 10.81 6.32 16.74 7.03 2.67 0.31 6.61 0.14 9.13 -0.41 0.35 -0.08 0.95 -0.14 1.34 -0.15 l0.73 0 0.81 0.99 c1.11 1.36 2.41 2.52 3.95 3.53 1.19 0.78 1.29 0.88 1.29 1.32 0 0.42 -0.10 0.52 -1.27 1.30 -2.51 1.69 -5.14 2.84 -8.25 3.60 -1.37 0.34 -1.74 0.36 -5.25 0.39 -2.07 0.03 -4.01 0.01 -4.27 -0.01z"/>
  <path d="M21.19 63.09 c0 -0.46 0.03 -0.63 0.06 -0.38 0.03 0.25 0.03 0.63 0 0.84 -0.03 0.21 -0.06 0 -0.06 -0.46z"/>
  <path d="M91.66 44.79 c-0.53 -0.39 -1.61 -1.01 -2.38 -1.39 -2.67 -1.27 -4.69 -1.79 -7.66 -1.90 l-1.90 -0.08 -0.36 -0.67 c-1.25 -2.28 -3.56 -5.20 -5.49 -6.93 -2.46 -2.20 -4.65 -3.66 -7.69 -5.11 -7.46 -3.57 -15.11 -4.16 -23.18 -1.79 -4.10 1.20 -8.44 3.49 -11.90 6.26 -1.61 1.29 -4.16 3.81 -5.17 5.11 -0.57 0.71 -0.83 0.94 -1.09 0.94 -0.31 0 -0.34 -0.03 -0.18 -0.21 0.15 -0.20 0.10 -0.27 -0.17 -0.22 -0.07 0 -0.11 -0.18 -0.11 -0.41 0 -0.70 -0.28 -0.48 -0.31 0.25 -0.01 0.50 -0.03 0.55 -0.07 0.21 -0.03 -0.25 -0.13 -0.46 -0.21 -0.46 -0.32 0 0.28 -4.10 1.04 -7.14 1.01 -4.10 2.84 -8.33 4.99 -11.55 4.68 -7.02 12.31 -11.68 21.67 -13.23 2.32 -0.39 9.54 -0.56 11.78 -0.29 5.10 0.63 10.28 2.51 14.21 5.14 8.54 5.70 14.27 15.34 15.74 26.47 0.27 1.99 0.52 6.67 0.41 7.31 -0.13 0.69 -0.71 0.62 -1.95 -0.28z"/>
 </g>
 <g fill="#f77e20">
  <path d="M74.71 80.32 c-2.24 -0.35 -4.37 -1.11 -6.12 -2.17 -0.78 -0.46 -0.88 -0.59 -0.92 -1.01 -0.06 -0.67 0.20 -0.84 2.07 -1.36 3.63 -1.02 7.91 -3.14 11.34 -5.59 4.83 -3.45 9.07 -8.29 12.06 -13.78 1.11 -2.02 1.15 -2.07 1.88 -2.07 l0.57 0 0.31 0.88 c1.43 4.09 1.46 9.58 0.07 13.26 -2.24 5.94 -7.66 10.43 -14.19 11.76 -1.62 0.34 -5.22 0.36 -7.07 0.07z"/>
 </g>
 <g fill="#eb5930">
  <path d="M63.30 91.42 c0 -0.64 0.22 -0.83 1.89 -1.51 3.78 -1.58 6.88 -3.61 9.38 -6.15 1.27 -1.30 1.19 -1.27 3.64 -0.92 1.82 0.27 3.53 0.27 5.38 -0.01 1.75 -0.25 4.24 -0.83 4.87 -1.11 0.24 -0.11 0.81 -0.21 1.29 -0.21 l0.85 0 0 0.43 c0 0.25 -0.08 0.52 -0.20 0.60 -5.77 4.62 -11.95 7.49 -18.99 8.86 -1.57 0.29 -2.42 0.36 -5 0.42 l-3.12 0.07 0 -0.48z"/>
  <path d="M100.55 68.75 c0 -0.25 0.13 -0.91 0.28 -1.44 1.62 -5.84 1.02 -13.04 -1.50 -18.07 -0.50 -1.01 -1.93 -3.25 -2.16 -3.39 -0.08 -0.04 -0.10 -1.27 -0.04 -3.18 0.07 -2.10 0.04 -3.66 -0.07 -4.79 -0.74 -7.32 -3.73 -14.70 -8.54 -21.22 -2.60 -3.53 -6.95 -7.63 -10.14 -9.59 -0.63 -0.41 -0.67 -0.45 -0.63 -0.98 l0.04 -0.56 0.73 -0.04 c0.87 -0.06 1.90 0.35 4.90 1.89 6.99 3.59 12.58 8.67 17 15.45 5.73 8.77 7.97 19.91 6.34 31.44 -0.63 4.51 -2.28 9.55 -4.37 13.37 -0.78 1.43 -0.81 1.47 -1.33 1.51 -0.50 0.04 -0.52 0.03 -0.52 -0.41z"/>
  <path d="M18.14 63.34 c-1.44 -3.11 -2.72 -7.95 -3.14 -12.02 -0.41 -3.81 -0.29 -8.98 0.27 -12.83 1.08 -7.28 4.19 -14.19 9.02 -20 0.56 -0.66 1.89 -2.04 2.95 -3.05 l1.93 -1.86 0.67 0 c0.67 0 0.69 0.01 0.69 0.41 0 0.31 -0.35 0.88 -1.32 2.17 -5.53 7.35 -8.12 13.81 -8.56 21.30 -0.11 1.79 0.08 4.36 0.50 6.65 l0.29 1.61 -0.70 2.10 c-0.81 2.44 -1.36 4.93 -1.55 7.21 -0.25 2.72 -0.21 3.88 0.36 8.65 l0.08 0.73 -0.50 0 c-0.50 0 -0.52 -0.03 -1.01 -1.08z"/>
 </g>
 <g fill="#e72629">
  <path d="M55.67 71.77 c-7.48 -1.36 -14.41 -3.95 -19.23 -7.20 -3.54 -2.39 -6.05 -4.94 -8.51 -8.64 -1.22 -1.85 -3.05 -5.31 -3.71 -7.06 -0.70 -1.82 -1.25 -3.56 -1.25 -3.94 0 -0.53 0.43 -1.37 1.68 -3.28 1.32 -1.99 2.39 -3.28 4.36 -5.18 1.86 -1.81 3.38 -2.97 5.49 -4.23 1.76 -1.04 2.44 -1.36 4.86 -2.27 3.80 -1.46 5.87 -1.81 11.13 -1.92 3.26 -0.07 4.20 -0.06 5.60 0.14 6.53 0.92 12.11 3.33 16.88 7.30 1.57 1.32 1.71 1.48 1.65 2.11 -0.04 0.49 -0.08 0.55 -0.53 0.66 -2.91 0.73 -5.34 1.69 -7.46 2.94 -2.74 1.62 -5.85 4.50 -7.34 6.76 -2.07 3.15 -3.14 6.20 -3.56 10.07 -0.36 3.49 0.60 7.94 2.53 11.67 0.46 0.90 0.84 1.79 0.84 2.02 0 0.39 -0.01 0.39 -0.80 0.38 -0.45 0 -1.62 -0.15 -2.63 -0.34z"/>
 </g>
 <g fill="#0a0000">
  <path d="M100.41 68.44 c0 -0.34 0.06 -0.80 0.14 -1.02 0.07 -0.22 0.20 -0.81 0.28 -1.32 0.07 -0.50 0.22 -1.51 0.34 -2.24 0.13 -0.73 0.22 -2.17 0.24 -3.19 l0.01 -1.86 0.36 0.04 0.38 0.04 -0.03 2.03 c-0.04 2.74 -0.45 5.53 -1.12 7.63 -0.14 0.45 0.31 0.01 0.52 -0.50 0.25 -0.60 0.29 -0.43 0.08 0.29 -0.17 0.59 -0.22 0.63 -0.70 0.67 l-0.50 0.04 0 -0.62z"/>
  <path d="M17.87 63.41 c-0.64 -1.43 -1.75 -4.66 -2.10 -6.19 -0.70 -2.97 -1.04 -5.34 -1.20 -8.56 -0.15 -2.90 -0.08 -3.85 0.28 -3.85 0.21 0 0.25 0.25 0.34 2.41 0.15 3.94 0.46 6.16 1.29 9.50 0.53 2.18 1.36 4.64 2.09 6.20 0.46 0.99 0.76 1.43 0.57 0.83 -0.20 -0.62 -0.50 -4.33 -0.50 -6.15 l0 -2 0.35 0 0.35 0 0 1.79 c0 0.98 0.10 2.73 0.21 3.88 0.11 1.16 0.21 2.31 0.21 2.56 l0 0.45 -0.74 0 -0.74 0 -0.39 -0.87z"/>
 </g>
 <g fill="#010101">
  <path d="M87.25 153.49 l0 -16.81 6.02 0 6.02 0 0 2.59 0 2.59 -3.32 0.03 -3.33 0.04 -0.04 3.82 -0.03 3.81 2.66 0 2.66 0 0 2.24 0 2.24 -2.66 0 -2.66 0 0 5.74 0 5.74 3.40 0.03 3.39 0.04 0.04 2.35 0.03 2.34 -6.09 0 -6.09 0 0 -16.81z"/>
  <path d="M77.33 169.22 c-0.32 -1.54 -2.63 -14.73 -3.26 -18.63 -0.32 -2.06 -0.50 -2.84 -0.64 -2.84 -0.15 0 -0.18 1.90 -0.18 10.92 l0 10.92 -2.09 0 -2.10 0 -0.08 -0.73 c-0.04 -0.41 -0.07 -7.80 -0.04 -16.43 l0.04 -15.69 3.64 0 3.63 0 0.45 2.52 c0.24 1.39 1.05 6.08 1.81 10.43 0.76 4.36 1.41 7.95 1.46 8.01 0.04 0.06 0.07 -4.66 0.04 -10.46 l-0.04 -10.57 2.31 0 2.32 0 0 16.60 0 16.60 -3.56 0 -3.56 0 -0.14 -0.66z"/>
  <path d="M16.74 168.18 c-2.23 -0.36 -3.94 -1.61 -4.83 -3.50 -0.70 -1.48 -0.71 -1.85 -0.67 -13.85 l0.04 -11.13 0.32 -0.80 c1.01 -2.51 3.19 -4.01 6.18 -4.26 1.29 -0.11 3.04 0.20 4.19 0.74 0.95 0.45 2.25 1.65 2.73 2.52 0.81 1.50 0.80 1.33 0.80 13.63 0 12.31 0.03 11.88 -0.80 13.51 -0.55 1.05 -1.78 2.20 -2.88 2.63 -1.53 0.62 -3.36 0.80 -5.07 0.50z m2.31 -4.59 c0.20 -0.13 0.46 -0.46 0.59 -0.73 0.24 -0.43 0.25 -1.26 0.25 -11.26 0 -10.20 -0.01 -10.81 -0.27 -11.36 -0.27 -0.60 -0.94 -1.04 -1.58 -1.04 -0.43 0 -1.16 0.46 -1.47 0.94 -0.24 0.36 -0.25 1.01 -0.25 11.32 0 10.32 0.01 10.95 0.25 11.44 0.52 1.04 1.58 1.33 2.48 0.69z"/>
  <path d="M60.78 152.23 l0 -16.11 2.80 0 2.80 0 0 16.11 0 16.11 -2.80 0 -2.80 0 0 -16.11z"/>
  <path d="M28.57 152.44 l0 -15.05 3.63 0 c2 0 3.67 0.06 3.71 0.13 0.13 0.21 2.32 11.15 3.53 17.66 0.20 1.04 0.41 2.09 0.48 2.31 0.06 0.24 0.11 -4.33 0.13 -10.39 l0.01 -10.81 0.60 -0.08 c0.32 -0.04 1.29 -0.07 2.13 -0.04 l1.54 0.04 0.04 15.66 0.03 15.64 -3.50 0 c-1.92 0 -3.50 -0.04 -3.50 -0.10 0 -0.06 -0.35 -1.76 -0.78 -3.81 -0.42 -2.04 -1.25 -5.97 -1.82 -8.70 -1.27 -6.09 -1.15 -5.60 -1.32 -5.60 -0.10 0 -0.14 3.25 -0.14 9.10 l0 9.10 -2.38 0 -2.38 0 0 -15.05z"/>
  <path d="M47.15 166 c-0.06 -0.04 -0.10 -6.85 -0.10 -15.11 l0 -15.01 0.81 -0.08 c0.43 -0.04 1.18 -0.06 1.64 -0.01 0.46 0.03 1.23 0.06 1.72 0.07 l0.87 0 0 12.46 0 12.46 3.29 0 3.28 0 0.04 2.56 c0.03 1.40 0.03 2.59 0 2.66 -0.06 0.13 -11.43 0.14 -11.55 0z"/>
  <path d="M112.67 135.90 c-2.46 -0.39 -4.40 -1.72 -5.28 -3.66 -0.64 -1.44 -0.70 -2.59 -0.64 -14.73 0.06 -10.71 0.06 -10.88 0.36 -11.78 0.73 -2.17 2.37 -3.64 4.75 -4.26 0.99 -0.27 3.19 -0.29 4.27 -0.07 1.93 0.41 3.63 1.69 4.43 3.36 l0.45 0.94 0 13.25 c0 7.81 -0.06 13.25 -0.13 13.25 -0.07 0 -0.31 0.29 -0.52 0.66 -0.46 0.78 -1.50 1.85 -2.09 2.14 -0.22 0.11 -0.52 0.27 -0.63 0.35 -0.52 0.39 -3.71 0.74 -4.97 0.55z m2.56 -4.82 c0.25 -0.15 0.57 -0.48 0.73 -0.73 0.28 -0.45 0.28 -0.69 0.25 -12.11 l-0.04 -11.67 -0.50 -0.50 c-0.67 -0.67 -1.40 -0.77 -2.09 -0.31 -1.04 0.70 -0.98 -0.03 -0.98 12.65 l0 11.34 0.32 0.56 c0.32 0.56 1.04 1.05 1.57 1.05 0.15 0 0.49 -0.13 0.74 -0.28z"/>
  <path d="M5.32 135.19 c-2.27 -0.38 -4.13 -1.71 -4.86 -3.47 -0.14 -0.35 -0.29 -0.63 -0.35 -0.63 -0.07 0 -0.11 -6.55 -0.11 -14.56 l0 -14.56 2.59 0 2.59 0 0.03 13.28 0.04 13.29 0.39 0.50 c0.66 0.85 1.71 1.01 2.53 0.36 0.91 -0.71 0.85 0.17 0.90 -14.30 l0.03 -13.14 2.31 0 2.31 0 0 13.77 c0 14.98 0 14.90 -0.80 16.37 -0.49 0.91 -1.47 1.89 -2.37 2.38 -1.18 0.63 -3.67 0.98 -5.24 0.71z"/>
  <path d="M95.15 134.65 c-2.56 -0.56 -4.23 -2.20 -4.76 -4.68 -0.10 -0.50 -0.20 -1.57 -0.20 -2.35 l0 -1.44 2.07 0 c1.13 0 2.28 -0.04 2.56 -0.08 l0.52 -0.08 0.06 1.86 c0.04 1.22 0.13 2.02 0.25 2.27 0.42 0.87 1.83 1.09 2.52 0.41 0.53 -0.55 0.70 -1.23 0.70 -2.97 0 -3.68 -0.52 -4.76 -3.99 -8.37 -3.82 -3.98 -4.54 -5.28 -4.76 -8.79 -0.14 -2.06 0.10 -3.92 0.63 -5.06 1.02 -2.21 3.50 -3.59 6.44 -3.59 2.90 0 5 1.12 6.06 3.22 0.50 0.99 0.66 2.04 0.66 4.62 l0 2.28 -2.52 0 -2.52 0 -0.01 -2.27 c0 -1.34 -0.08 -2.51 -0.18 -2.84 -0.18 -0.63 -0.88 -1.19 -1.48 -1.19 -0.48 0 -1.27 0.52 -1.50 0.98 -0.29 0.59 -0.24 3.53 0.10 4.83 0.46 1.82 1.02 2.62 4.06 5.74 3.18 3.28 4.03 4.71 4.44 7.35 0.25 1.57 0.17 4.44 -0.15 5.56 -0.69 2.49 -2.35 4.05 -4.93 4.59 -1.18 0.25 -2.91 0.25 -4.06 0z"/>
  <path d="M74.15 134 c-0.04 -0.41 -0.07 -7.80 -0.04 -16.43 l0.04 -15.69 4.27 0.01 c3.59 0.01 4.41 0.06 5.18 0.25 1.25 0.34 2.16 0.85 2.87 1.65 1.26 1.41 1.54 2.53 1.54 6.34 -0.01 2.49 -0.04 2.91 -0.32 3.81 -0.41 1.33 -1.20 2.32 -2.34 2.91 -0.95 0.50 -1.08 0.71 -0.53 0.84 1.01 0.22 2.10 1.36 2.59 2.66 0.29 0.80 0.31 1.12 0.39 6.72 0.07 5.53 0.10 5.92 0.38 6.68 0.15 0.43 0.25 0.83 0.21 0.87 -0.11 0.13 -5.53 0.10 -5.71 -0.03 -0.31 -0.20 -0.36 -1.05 -0.46 -6.68 -0.07 -4.47 -0.14 -5.83 -0.28 -6.12 -0.32 -0.63 -0.81 -0.85 -2 -0.92 l-1.09 -0.07 -0.03 6.92 -0.04 6.92 -2.27 0.04 -2.25 0.03 -0.10 -0.73z m7.09 -19.58 c0.42 -0.08 0.88 -0.28 1.08 -0.46 0.67 -0.63 0.73 -0.88 0.73 -3.77 0 -2.30 -0.04 -2.77 -0.25 -3.18 -0.35 -0.69 -1.01 -0.99 -2.16 -0.99 l-0.95 0 0 4.17 c0 2.30 0.04 4.23 0.10 4.27 0.13 0.14 0.59 0.13 1.46 -0.04z"/>
  <path d="M25.28 134.21 l-0.56 -0.06 -1.16 -6.26 c-0.64 -3.45 -1.46 -7.93 -1.82 -9.96 -0.41 -2.21 -0.74 -3.73 -0.84 -3.77 -0.13 -0.04 -0.17 2.21 -0.20 9.66 l-0.04 9.71 -2.10 0 -2.10 0 -0.04 -15.22 c-0.01 -8.39 -0.01 -15.24 0 -15.25 0.03 0 1.67 -0.04 3.64 -0.08 l3.60 -0.08 0.07 0.34 c0.10 0.39 1.30 7.04 2.74 15.18 0.55 3.08 1.04 5.71 1.11 5.87 0.06 0.14 0.10 -4.87 0.08 -11.13 l0 -11.40 2.10 0 2.10 0 0.04 16.16 c0.03 12.84 0 16.19 -0.14 16.29 -0.18 0.10 -5.35 0.11 -6.48 0.01z"/>
  <path d="M34.77 134.21 l-0.46 -0.06 0 -15.69 0 -15.67 2.87 0 2.87 0 0 15.69 0 15.69 -0.74 0 c-0.42 0 -1.50 0.03 -2.42 0.06 -0.91 0.03 -1.88 0.03 -2.11 -0.01z"/>
  <path d="M59.62 134.07 c-0.13 -0.11 -0.13 -29.27 -0.01 -30.96 l0.10 -1.29 6.13 0 6.15 0 0 2.24 0 2.24 -3.22 0 -3.22 0 0 4.48 0 4.48 2.52 0 2.52 0 0 2.31 0 2.31 -3.15 0 -3.15 0 0 4.82 c0 4.37 0.03 4.85 0.24 5.07 0.22 0.21 0.59 0.22 3.82 0.18 l3.57 -0.06 0.04 2.14 0.04 2.13 -6.15 0 c-3.38 0 -6.19 -0.04 -6.23 -0.10z"/>
  <path d="M46.08 133.23 c0 -0.07 -0.28 -2.13 -0.63 -4.59 -0.35 -2.46 -1.29 -9.31 -2.10 -15.22 -0.81 -5.90 -1.51 -10.92 -1.55 -11.16 l-0.08 -0.43 2.65 0 2.66 0 0.31 2.98 c0.69 6.44 2.24 20.15 2.30 20.21 0.03 0.03 0.15 -0.84 0.29 -1.95 0.13 -1.09 0.49 -3.78 0.78 -5.98 0.31 -2.20 0.81 -5.88 1.12 -8.19 0.31 -2.31 0.67 -4.85 0.80 -5.63 l0.22 -1.44 2.42 0 c1.34 0 2.44 0.04 2.44 0.11 0 0.20 -1.54 10.76 -2.79 19.07 -0.70 4.66 -1.36 9.13 -1.48 9.94 -0.11 0.81 -0.24 1.68 -0.28 1.93 l-0.08 0.45 -3.49 0 c-1.93 0 -3.50 -0.04 -3.50 -0.10z"/>
  <path d="M56.44 95.71 c-0.27 -0.03 -1.12 -0.13 -1.89 -0.21 -8.53 -0.91 -17.41 -4.43 -24.37 -9.65 -8.89 -6.68 -15.10 -15.71 -17.93 -26.12 -1.96 -7.20 -2.03 -15.49 -0.20 -22.87 4.31 -17.44 17.67 -30.81 35.35 -35.39 4.82 -1.25 7 -1.47 14.24 -1.47 3.22 0 5.85 0.06 5.85 0.11 0 0.06 0.55 0.20 1.23 0.28 4.94 0.71 11.02 2.70 15.67 5.14 9.29 4.89 16.27 11.99 20.96 21.32 3.33 6.64 4.99 13.63 4.99 21.09 0 4.22 -0.46 7.79 -1.54 11.93 -2.73 10.56 -9.71 20.39 -19 26.82 -0.55 0.38 -1.04 0.76 -1.09 0.84 -0.04 0.08 -0.29 0.24 -0.53 0.36 -0.25 0.11 -0.70 0.36 -1.01 0.55 -0.31 0.18 -0.71 0.42 -0.91 0.52 -0.20 0.11 -0.73 0.41 -1.19 0.66 -0.46 0.27 -0.94 0.56 -1.06 0.66 -0.11 0.11 -0.29 0.20 -0.39 0.20 -0.11 0 -0.48 0.15 -0.84 0.34 -0.74 0.38 -2.91 1.34 -3.03 1.34 -0.04 0 -0.34 0.13 -0.67 0.27 -0.32 0.15 -0.84 0.35 -1.15 0.43 -0.31 0.10 -0.74 0.25 -0.98 0.36 -0.22 0.10 -0.80 0.28 -1.26 0.41 -0.46 0.13 -1.27 0.35 -1.82 0.50 -1.47 0.39 -4.83 1.06 -6.72 1.33 -1.20 0.17 -2.88 0.24 -5.95 0.27 -2.35 0.03 -4.50 0.01 -4.76 -0.01z m14.56 -4.73 c2.04 -0.39 4.89 -1.18 7 -1.95 3.85 -1.39 8.21 -3.87 11.46 -6.50 l0.76 -0.60 -0.45 0 c-0.25 0 -0.64 0.10 -0.88 0.21 -0.25 0.10 -1.11 0.35 -1.92 0.55 -3.39 0.80 -6.30 0.98 -9.26 0.56 l-1.57 -0.21 -1.41 1.39 c-2.62 2.58 -5.50 4.43 -9.29 5.98 -0.71 0.28 -1.40 0.66 -1.54 0.81 -0.25 0.27 -0.24 0.28 2.48 0.20 2.13 -0.06 3.15 -0.14 4.62 -0.43z m-13.44 -1.67 c2.21 -0.53 3.53 -1.01 5.34 -1.92 1.86 -0.92 4.27 -2.49 4.10 -2.65 -0.07 -0.06 -0.69 -0.48 -1.39 -0.92 -1.25 -0.83 -3.01 -2.45 -4.09 -3.77 l-0.56 -0.69 -0.90 0.15 c-3.49 0.64 -7.17 0.80 -10.14 0.45 -3.95 -0.46 -8.32 -1.85 -11.83 -3.74 -4.52 -2.45 -8.65 -6.11 -12 -10.64 -1.11 -1.50 -2.79 -4.26 -3.63 -5.95 -0.94 -1.89 -1.12 -1.86 -1.25 0.21 -0.31 5.27 1.16 10.81 4.08 15.36 1.48 2.32 4.26 5.38 6.57 7.24 4.31 3.47 9.61 5.91 14.98 6.89 2.21 0.41 2.18 0.41 5.88 0.36 3.05 -0.03 3.50 -0.07 4.83 -0.39z m23.81 -9.48 c6.53 -1.33 11.95 -5.83 14.19 -11.76 1.34 -3.57 1.32 -8.44 -0.07 -12.42 -0.46 -1.33 -0.59 -1.25 -1.92 1.19 -2.98 5.49 -7.23 10.34 -12.06 13.78 -3.43 2.45 -7.72 4.57 -11.34 5.57 -0.88 0.25 -1.72 0.56 -1.86 0.70 -0.24 0.22 -0.22 0.25 0.28 0.59 1.15 0.76 3.15 1.64 4.59 2.03 2.48 0.66 5.90 0.78 8.19 0.32z m-13.37 -5.74 c5.80 -1.27 11.82 -4.85 16.74 -9.89 3.53 -3.63 5.45 -6.37 7.72 -11.05 l1.08 -2.24 -0.78 -0.81 c-1.43 -1.47 -3.39 -2.90 -5.29 -3.85 -2.48 -1.23 -4.45 -1.71 -7.51 -1.81 -3.35 -0.11 -5.62 0.27 -8.19 1.36 -5.59 2.38 -9.71 7.18 -10.83 12.60 -0.27 1.29 -0.29 1.78 -0.24 3.92 0.08 2.74 0.35 4.08 1.26 6.34 0.76 1.86 2.20 4.30 3.15 5.32 0.45 0.48 1.08 0.49 2.90 0.10z m-10.17 -3.98 c-2 -3.87 -2.94 -8.51 -2.52 -12.48 0.69 -6.36 3.45 -11.30 8.44 -15.14 2.84 -2.17 6.47 -3.91 9.52 -4.54 0.45 -0.08 0.84 -0.22 0.90 -0.29 0.11 -0.18 -0.32 -0.64 -1.62 -1.74 -4.76 -3.96 -10.35 -6.37 -16.88 -7.30 -1.39 -0.18 -2.31 -0.21 -5.18 -0.14 -3.70 0.10 -5.22 0.27 -7.56 0.88 -1.37 0.36 -4.15 1.36 -5.69 2.04 -1.19 0.53 -3.70 2.06 -5.03 3.07 -1.41 1.05 -4.02 3.54 -5.25 5.01 -0.94 1.13 -2.69 3.73 -3.24 4.79 l-0.34 0.66 0.48 1.37 c1.16 3.38 2.66 6.47 4.48 9.20 4.13 6.22 9.10 9.94 17.59 13.12 1.65 0.63 5 1.62 7 2.07 1.61 0.38 4.83 0.97 5.34 0.98 l0.38 0.01 -0.83 -1.60z m44.66 -3.89 c2.80 -5.62 4.13 -11.15 4.33 -17.90 0.27 -9.13 -2.11 -17.88 -6.81 -25.07 -4.43 -6.78 -10.01 -11.86 -17 -15.45 -3.29 -1.69 -4.66 -2.18 -4.82 -1.71 -0.01 0.08 0.25 0.32 0.63 0.56 3.22 2 7.52 6.08 10.13 9.59 4.82 6.51 7.80 13.91 8.54 21.22 0.10 1.08 0.14 2.80 0.08 4.80 -0.04 1.71 -0.01 3.14 0.04 3.18 0.21 0.13 1.65 2.41 2.14 3.38 1.20 2.41 2.10 5.70 2.27 8.39 0.04 0.70 0.11 1.43 0.14 1.65 0.04 0.24 0 0.38 -0.11 0.38 -0.13 0 -0.18 0.50 -0.21 1.86 -0.03 1.01 -0.14 2.45 -0.25 3.18 -0.11 0.73 -0.27 1.74 -0.35 2.24 -0.07 0.50 -0.20 1.12 -0.28 1.37 -0.18 0.56 -0.07 0.98 0.20 0.74 0.11 -0.08 0.70 -1.18 1.33 -2.42z m-83.23 -3.04 c-0.04 -0.35 -0.11 -0.87 -0.15 -1.13 -0.03 -0.27 -0.10 -1.72 -0.15 -3.22 -0.04 -1.50 -0.13 -2.76 -0.18 -2.80 -0.17 -0.11 0.13 -2.87 0.50 -4.76 0.20 -0.97 0.66 -2.63 1.02 -3.71 l0.64 -1.96 -0.24 -1.26 c-0.36 -1.96 -0.57 -4.99 -0.48 -6.96 0.38 -7.63 2.97 -14.17 8.56 -21.61 0.99 -1.32 1.26 -1.75 1.06 -1.75 -0.34 0 -3.82 3.35 -5.14 4.92 -5.62 6.75 -8.96 15.15 -9.38 23.57 -0.04 0.94 -0.14 2.04 -0.22 2.46 -0.42 2.11 0.07 7.56 1.09 11.85 0.55 2.37 2.32 7.14 2.59 6.97 0.06 -0.03 0.14 0 0.20 0.08 0.21 0.34 0.36 -0.06 0.28 -0.69z m73.86 -21.02 c-0.57 -11.93 -5.21 -21.62 -13.74 -28.75 -4.16 -3.49 -10.46 -6.08 -16.57 -6.83 -2.16 -0.27 -8.58 -0.10 -10.92 0.29 -9.33 1.54 -16.99 6.22 -21.67 13.23 -2.74 4.13 -4.76 9.41 -5.71 14.98 -0.34 1.95 -0.53 4.69 -0.32 4.48 0.08 -0.07 0.55 -0.67 1.04 -1.33 1.09 -1.47 3.68 -4.08 5.45 -5.49 5.25 -4.20 11.88 -6.92 18.32 -7.53 2.23 -0.21 5.95 -0.17 7.76 0.07 7.70 1.06 15.13 5 19.83 10.50 1.18 1.37 2.46 3.21 3.19 4.54 l0.36 0.67 1.90 0.08 c2.97 0.11 4.99 0.63 7.66 1.90 0.77 0.38 1.85 0.99 2.38 1.37 1.22 0.87 1.19 0.94 1.04 -2.20z"/>
 </g>
</svg>