<?xml version="1.0" encoding="utf-8"?>
<!-- Generator: Adobe Illustrator 30.2.1, SVG Export Plug-In . SVG Version: 9.03 Build 0)  -->
<svg version="1.0" id="Layer_1" xmlns="http://www.w3.org/2000/svg" xmlns:xlink="http://www.w3.org/1999/xlink" x="0px" y="0px"
	 viewBox="0 0 1366 768" style="enable-background:new 0 0 1366 768;" xml:space="preserve">
<style type="text/css">
	.st0{fill:#FFFFFF;}
</style>
<g>
	<path class="st0" d="M796.74,459.54v-71.36h25.55h25.55v10.99v10.99l-14.09,0.13l-14.14,0.17l-0.17,16.22l-0.13,16.17h11.29h11.29
		v9.51v9.51h-11.29h-11.29v24.37v24.37l14.43,0.13l14.39,0.17l0.17,9.98l0.13,9.93h-25.85h-25.85v-71.36V459.54z"/>
	<path class="st0" d="M754.63,526.31c-1.36-6.54-11.16-62.53-13.84-79.08c-1.36-8.74-2.12-12.06-2.72-12.06
		c-0.64,0-0.76,8.07-0.76,46.36v46.36h-8.87h-8.91l-0.34-3.1c-0.17-1.74-0.3-33.11-0.17-69.74l0.17-66.6h15.45h15.41l1.91,10.7
		c1.02,5.9,4.46,25.81,7.68,44.28c3.23,18.51,5.99,33.75,6.2,34c0.17,0.25,0.3-19.78,0.17-44.4l-0.17-44.87h9.81h9.85v70.47v70.47
		h-15.11h-15.11l-0.59-2.8L754.63,526.31z"/>
	<path class="st0" d="M497.43,521.9c-9.47-1.53-16.73-6.83-20.5-14.86c-2.97-6.28-3.01-7.85-2.84-58.79l0.17-47.25l1.36-3.4
		c4.29-10.65,13.54-17.02,26.23-18.08c5.48-0.47,12.9,0.85,17.79,3.14c4.03,1.91,9.55,7,11.59,10.7c3.44,6.37,3.4,5.65,3.4,57.86
		c0,52.26,0.13,50.43-3.4,57.35c-2.33,4.46-7.56,9.34-12.23,11.16c-6.49,2.63-14.26,3.4-21.52,2.12L497.43,521.9z M507.24,502.42
		c0.85-0.55,1.95-1.95,2.5-3.1c1.02-1.83,1.06-5.35,1.06-47.8c0-43.3-0.04-45.89-1.15-48.22c-1.15-2.55-3.99-4.41-6.71-4.41
		c-1.83,0-4.92,1.95-6.24,3.99c-1.02,1.53-1.06,4.29-1.06,48.05c0,43.81,0.04,46.48,1.06,48.56
		C498.92,503.9,503.41,505.13,507.24,502.42L507.24,502.42z"/>
	<path class="st0" d="M684.38,454.19v-68.39h11.89h11.89v68.39v68.39h-11.89h-11.89V454.19z"/>
	<path class="st0" d="M547.65,455.08V391.2h15.41c8.49,0,15.58,0.25,15.75,0.55c0.55,0.89,9.85,47.33,14.98,74.97
		c0.85,4.41,1.74,8.87,2.04,9.81c0.25,1.02,0.47-18.38,0.55-44.11l0.04-45.89l2.55-0.34c1.36-0.17,5.48-0.3,9.04-0.17l6.54,0.17
		l0.17,66.48l0.13,66.39h-14.86c-8.15,0-14.86-0.17-14.86-0.42c0-0.25-1.49-7.47-3.31-16.17c-1.78-8.66-5.31-25.34-7.73-36.93
		c-5.39-25.85-4.88-23.77-5.6-23.77c-0.42,0-0.59,13.8-0.59,38.63v38.63h-10.1h-10.1v-63.89L547.65,455.08z"/>
	<path class="st0" d="M626.52,512.65c-0.25-0.17-0.42-29.08-0.42-64.14v-63.72l3.44-0.34c1.83-0.17,5.01-0.25,6.96-0.04
		c1.95,0.13,5.22,0.25,7.3,0.3h3.69v52.89v52.89h13.97h13.92l0.17,10.87c0.13,5.94,0.13,10.99,0,11.29
		C675.29,513.2,627.03,513.24,626.52,512.65L626.52,512.65z"/>
	<path class="st0" d="M904.65,384.87c-10.44-1.66-18.68-7.3-22.41-15.54c-2.72-6.11-2.97-10.99-2.72-62.53
		c0.25-45.46,0.25-46.19,1.53-50.01c3.1-9.21,10.06-15.45,20.16-18.08c4.2-1.15,13.54-1.23,18.13-0.3
		c8.19,1.74,15.41,7.17,18.81,14.26l1.91,3.99v56.25c0,33.15-0.25,56.25-0.55,56.25c-0.3,0-1.32,1.23-2.21,2.8
		c-1.95,3.31-6.37,7.85-8.87,9.08c-0.93,0.47-2.21,1.15-2.67,1.49C923.54,384.19,910,385.68,904.65,384.87L904.65,384.87z
		 M915.52,364.41c1.06-0.64,2.42-2.04,3.1-3.1c1.19-1.91,1.19-2.93,1.06-51.41l-0.17-49.54l-2.12-2.12
		c-2.84-2.84-5.94-3.27-8.87-1.32c-4.41,2.97-4.16-0.13-4.16,53.7v48.14l1.36,2.38c1.36,2.38,4.41,4.46,6.66,4.46
		C913.01,365.6,914.46,365.05,915.52,364.41L915.52,364.41z"/>
	<path class="st0" d="M448.95,381.86c-9.64-1.61-17.53-7.26-20.63-14.73c-0.59-1.49-1.23-2.67-1.49-2.67
		c-0.3,0-0.47-27.8-0.47-61.81v-61.81h10.99h10.99l0.13,56.37l0.17,56.42l1.66,2.12c2.8,3.61,7.26,4.29,10.74,1.53
		c3.86-3.01,3.61,0.72,3.82-60.7L465,240.8h9.81h9.81v58.45c0,63.59,0,63.25-3.4,69.49c-2.08,3.86-6.24,8.02-10.06,10.1
		c-5.01,2.67-15.58,4.16-22.24,3.01H448.95z"/>
	<path class="st0" d="M830.28,379.57c-10.87-2.38-17.96-9.34-20.21-19.87c-0.42-2.12-0.85-6.66-0.85-9.98v-6.11h8.79
		c4.8,0,9.68-0.17,10.87-0.34l2.21-0.34l0.25,7.9c0.17,5.18,0.55,8.57,1.06,9.64c1.78,3.69,7.77,4.63,10.7,1.74
		c2.25-2.33,2.97-5.22,2.97-12.61c0-15.62-2.21-20.21-16.94-35.53c-16.22-16.9-19.27-22.41-20.21-37.31
		c-0.59-8.74,0.42-16.64,2.67-21.48c4.33-9.38,14.86-15.24,27.34-15.24c12.31,0,21.22,4.75,25.72,13.67c2.12,4.2,2.8,8.66,2.8,19.61
		v9.68h-10.7h-10.7l-0.04-9.64c0-5.69-0.34-10.65-0.76-12.06c-0.76-2.67-3.74-5.05-6.28-5.05c-2.04,0-5.39,2.21-6.37,4.16
		c-1.23,2.5-1.02,14.98,0.42,20.5c1.95,7.73,4.33,11.12,17.23,24.37c13.5,13.92,17.11,19.99,18.85,31.2
		c1.06,6.66,0.72,18.85-0.64,23.6c-2.93,10.57-9.98,17.19-20.93,19.48c-5.01,1.06-12.35,1.06-17.23,0L830.28,379.57z"/>
	<path class="st0" d="M741.13,376.81c-0.17-1.74-0.3-33.11-0.17-69.74l0.17-66.6l18.13,0.04c15.24,0.04,18.72,0.25,21.99,1.06
		c5.31,1.44,9.17,3.61,12.18,7c5.35,5.99,6.54,10.74,6.54,26.91c-0.04,10.57-0.17,12.35-1.36,16.17c-1.74,5.65-5.09,9.85-9.93,12.35
		c-4.03,2.12-4.58,3.01-2.25,3.57c4.29,0.93,8.91,5.77,10.99,11.29c1.23,3.4,1.32,4.75,1.66,28.53c0.3,23.47,0.42,25.13,1.61,28.36
		c0.64,1.83,1.06,3.52,0.89,3.69c-0.47,0.55-23.47,0.42-24.24-0.13c-1.32-0.85-1.53-4.46-1.95-28.36
		c-0.3-18.98-0.59-24.75-1.19-25.98c-1.36-2.67-3.44-3.61-8.49-3.91l-4.63-0.3l-0.13,29.38l-0.17,29.38l-9.64,0.17l-9.55,0.13
		l-0.42-3.1L741.13,376.81z M771.23,293.69c1.78-0.34,3.74-1.19,4.58-1.95c2.84-2.67,3.1-3.74,3.1-16c0-9.76-0.17-11.76-1.06-13.5
		c-1.49-2.93-4.29-4.2-9.17-4.2h-4.03v17.7c0,9.76,0.17,17.96,0.42,18.13c0.55,0.59,2.5,0.55,6.2-0.17H771.23z"/>
	<path class="st0" d="M533.68,377.7l-2.38-0.25l-4.92-26.57c-2.72-14.65-6.2-33.66-7.73-42.28c-1.74-9.38-3.14-15.83-3.57-16
		c-0.55-0.17-0.72,9.38-0.85,41.01l-0.17,41.22h-8.91h-8.91l-0.17-64.61c-0.04-35.62-0.04-64.69,0-64.74
		c0.13,0,7.09-0.17,15.45-0.34l15.28-0.34l0.3,1.44c0.42,1.66,5.52,29.88,11.63,64.44c2.33,13.07,4.41,24.24,4.71,24.92
		c0.25,0.59,0.42-20.67,0.34-47.25v-48.39h8.91h8.91l0.17,68.6c0.13,54.51,0,68.73-0.59,69.15c-0.76,0.42-22.71,0.47-27.51,0.04
		V377.7z"/>
	<path class="st0" d="M573.97,377.7l-1.95-0.25v-66.6v-66.52h12.18h12.18v66.6v66.6h-3.14c-1.78,0-6.37,0.13-10.27,0.25
		c-3.86,0.13-7.98,0.13-8.96-0.04L573.97,377.7z"/>
	<path class="st0" d="M679.45,377.1c-0.55-0.47-0.55-124.25-0.04-131.42l0.42-5.48h26.02h26.11v9.51v9.51H718.3h-13.67v19.02v19.02
		h10.7h10.7v9.81v9.81h-13.37h-13.37v20.46c0,18.55,0.13,20.59,1.02,21.52c0.93,0.89,2.5,0.93,16.22,0.76l15.15-0.25l0.17,9.08
		l0.17,9.04H705.9c-14.35,0-26.28-0.17-26.45-0.42L679.45,377.1z"/>
	<path class="st0" d="M621.98,373.54c0-0.3-1.19-9.04-2.67-19.48c-1.49-10.44-5.48-39.52-8.91-64.61
		c-3.44-25.05-6.41-46.36-6.58-47.37l-0.34-1.83h11.25h11.29l1.32,12.65c2.93,27.34,9.51,85.54,9.76,85.79
		c0.13,0.13,0.64-3.57,1.23-8.28c0.55-4.63,2.08-16.05,3.31-25.38c1.32-9.34,3.44-24.96,4.75-34.77c1.32-9.81,2.84-20.59,3.4-23.9
		l0.93-6.11h10.27c5.69,0,10.36,0.17,10.36,0.47c0,0.85-6.54,45.68-11.84,80.95c-2.97,19.78-5.77,38.76-6.28,42.2
		c-0.47,3.44-1.02,7.13-1.19,8.19l-0.34,1.91h-14.81c-8.19,0-14.86-0.17-14.86-0.42L621.98,373.54z"/>
</g>
</svg>
